<svg xmlns="http://www.w3.org/2000/svg" viewBox="0 0 284 227"><defs><style>.cls-1{fill:#0a0a08;}.cls-2{fill:#282329;}.cls-3{fill:#563419;}.cls-4{fill:#c4cbd1;}.cls-5{fill:#a9a3ad;}.cls-6{fill:#c0cdd5;}.cls-7{fill:#697044;}</style></defs><title>Asset 1</title><g id="Layer_2" data-name="Layer 2"><g id="Layer_2-2" data-name="Layer 2"><ellipse class="cls-1" cx="232" cy="62" rx="7" ry="45"/><rect class="cls-2" x="25" y="11" width="23" height="84"/><ellipse class="cls-2" cx="36.5" cy="11" rx="11.5" ry="11"/><ellipse class="cls-2" cx="39" cy="100.5" rx="39" ry="9.5"/><polygon class="cls-2" points="36 227 15 100 59 100 36 227"/><path class="cls-3" d="M236,21s-106,8-112,9-27-2-36-9S53,6,53,6a35.48,35.48,0,0,0-7-1c1,2,1,4,0,8s-18,4-18,4-11,2-14,8a14.29,14.29,0,0,0-1,11s2,2-1,4S5,45,5,50s5,9,5,9,3,1,0,4S5,70,7,74s8,6,8,6,3,1,1,4-2,9,1,11,28,6,48-2a345.4,345.4,0,0,0,39-19s3-1,6,2,14-1,14-1,40,4,54,3,68-2,68-2Z"/><g id="Watch_1" data-name="Watch 1"><path class="cls-4" d="M122,31s2-4,5-4h12s3,2,5,9c1.94,6.8,4,18,3,27a46,46,0,0,1-5,16H128s-3-1-3-2V75h3s3-7,3-11V43a92,92,0,0,0-3-9,12.38,12.38,0,0,0-2-3Z"/><circle class="cls-5" cx="137.5" cy="53.5" r="13.5"/><circle class="cls-6" cx="139.5" cy="53.5" r="13.5"/><path class="cls-4" d="M153,28s1.42-7,5.06-7H172.6s4.85,2.42,6.06,10.9S181.91,48.07,181,59a146.47,146.47,0,0,1-4.4,23.66A1.81,1.81,0,0,1,174.85,84H159.27S154,82.21,154,81V77l5,1s3-3,3.9-12.17c.48-4.82,0-25.44,0-25.44s-2.42-8.48-3.63-10.9S157,27,157,27Z"/><circle class="cls-5" cx="170.78" cy="53.11" r="16.36"/><circle class="cls-6" cx="173.2" cy="53.11" r="16.36"/></g><path class="cls-7" d="M232,17l.22.54A114.3,114.3,0,0,1,239,61a219.2,219.2,0,0,1-7,46h52V17"/></g></g></svg>