<svg xmlns="http://www.w3.org/2000/svg" viewBox="0 0 115.36 119.16"><defs><style>.cls-1{opacity:0.57;}.cls-2{fill:#333;}.cls-3,.cls-6{fill:#f8f9db;}.cls-4{fill:#1e5131;}.cls-5{fill:#6d9c71;}.cls-6{font-size:16.1px;font-family:DollarBill, Dollar Bill;}.cls-7{fill:#a7a9ac;}.cls-8{fill:#414042;}.cls-9{fill:#939598;}.cls-10{fill:#6d6e71;}.cls-11{fill:#bcbec0;}</style></defs><title>Asset 12cash</title><g id="Layer_2" data-name="Layer 2"><g id="_500" data-name="500"><g class="cls-1"><path class="cls-2" d="M38.32,2.82S47.82,18,69,36.18a474.82,474.82,0,0,1,34.64,32.61l11.75,15.14S92,105.28,90.1,107.62s-11.48,11.54-11.48,11.54S65.14,101.61,57.63,95,18.52,60.71,16.25,58,1.13,38.44,1.13,38.44Z"/></g><path class="cls-3" d="M77.6,114.84c-2.86-3.68-13.83-17.6-20.44-23.42L54.63,89.2c-10-8.82-36.72-32.26-38.74-34.7S3.81,38.94,1.34,35.71L37,1.55c2.53,3.73,12.24,17.19,30.17,32.56C88,52,101.61,66.5,101.75,66.64L112.87,81c-3.94,3.6-22.91,21-24.68,23.18C86.67,106,79.94,112.59,77.6,114.84Z"/><path class="cls-4" d="M36.85,3.09c3.32,4.77,12.79,17.29,29.68,31.78C86.63,52.11,99.95,66.19,101,67.26l10.56,13.61c-5.33,4.88-22.36,20.53-24.1,22.67-1.26,1.55-6.49,6.69-9.71,9.81-3.65-4.66-13.66-17.19-19.89-22.67l-2.55-2.24c-9.06-8-36.65-32.19-38.61-34.57-1.83-2.21-10.84-13.94-14-18.05L36.85,3.09M37.19,0,0,35.61S12.86,52.4,15.12,55.14,49,85.57,56.5,92.18s21,24.16,21,24.16S87.06,107.14,89,104.8s25.26-23.7,25.26-23.7L102.48,66A474.83,474.83,0,0,0,67.83,33.35C46.69,15.21,37.19,0,37.19,0Z"/><path class="cls-5" d="M77.66,110c-2.78-3.49-13-16.2-19.14-21.58l-2.32-2c-9.33-8.21-34.12-30-36-32.27S8.88,39.9,6.48,36.84l30.43-30C39.4,10.37,48.59,22.7,65.11,36.91,84.45,53.56,97.15,67,97.28,67.1l10.46,13.18c-3.57,3.35-19.64,18.48-21.13,20.41C85.34,102.33,79.75,107.93,77.66,110Z"/><path class="cls-4" d="M36.78,8.39C40,12.87,48.94,24.32,64.46,37.67c18.64,16,31.09,29.07,32,30.06l9.89,12.45c-4.77,4.48-19.1,18-20.57,19.9-1,1.33-5.31,5.67-8.08,8.44-3.53-4.4-12.83-15.78-18.56-20.83L56.81,85.6C48.4,78.2,22.8,55.67,21,53.48c-1.71-2-10.09-12.68-13.13-16.55l29-28.54m.29-3.09L5.15,36.76s12.14,15.48,14.28,18S50.89,83,57.86,89.19s19.71,22.32,19.71,22.32,8.21-8.12,9.83-10.2,21.7-20.92,21.7-20.92L98,66.42S85.37,53,65.76,36.15,37.07,5.3,37.07,5.3Z"/><text class="cls-6" transform="translate(27.78 37.59) rotate(44.79)">$500$</text><path class="cls-7" d="M30.19,16.43s2.32-3.26,4-3.77a6,6,0,0,1,1.22-.25c.05,0,.09.06.15.06s.12-.08.18-.08a4,4,0,0,1,1.84.26c.26.18,2.38.51,3.11,1.27a17.53,17.53,0,0,1,.89,2.64A9.31,9.31,0,0,1,42,18.38c0,1,.07,1.31.18,1.46a.21.21,0,0,1,0,.15A11.88,11.88,0,0,1,42,21.58a5,5,0,0,1-.42.63.86.86,0,0,1-.21.65,5.47,5.47,0,0,1-1.4.93,2,2,0,0,1-.59,0s-1.33.9-1.82.81-2.09-.49-2.18-.53S31,27,31,27l-1-.37L29.82,26l3.64-2.93s-1.38-1.16-1.53-1.34-.89-1.34-.89-1.34l-3.24,3.48-.52-.4-.27-1,3.36-4.11A11.13,11.13,0,0,1,30.19,16.43Z"/><path class="cls-8" d="M33.24,15.11l-.66.54a6,6,0,0,0,.14,1.52c.16.34.65,1.24,1,1.25a2.09,2.09,0,0,0,1.12-.24c.29-.18.61-.37.43-.58S33.46,15.45,33.24,15.11Z"/><path class="cls-8" d="M36.39,18.93s-.64,1.2-.42,1.67A3.66,3.66,0,0,0,37.72,22a3,3,0,0,0,1.14.14s.52-.41.41-.51S36.84,19.47,36.39,18.93Z"/><path class="cls-8" d="M32.36,20,32,20a6.29,6.29,0,0,0,.22,1.51,6.66,6.66,0,0,0,1.53.48l.09-.56-1.1-.31Z"/><path class="cls-9" d="M30.38,18.42,27,22.53l.27,1L32.1,18s-.13-.45-.31-1a4.44,4.44,0,0,1,.07-1.7s-.21-.65-.1-.76-1.55,1.77-1.56,1.91A9.75,9.75,0,0,0,30.38,18.42Z"/><path class="cls-10" d="M35.67,21.41l.05.7a6.62,6.62,0,0,0,1.92,1A8,8,0,0,0,39,23.09l-.1-.36a5.07,5.07,0,0,1-2-.45C36.4,21.89,35.67,21.41,35.67,21.41Z"/><path class="cls-10" d="M31.86,15.29A4,4,0,0,0,31.63,17c.18.46.47,1,.47,1l.6.22a7,7,0,0,1-.76-1.73C31.9,16,31.86,15.29,31.86,15.29Z"/><path class="cls-10" d="M35,12.68s-1.09.45-1.22.86a2.85,2.85,0,0,0,.12,1.25s-.08-1.16.17-1.34S35,12.68,35,12.68Z"/><path class="cls-10" d="M36.7,17.58a7.57,7.57,0,0,1,1.71.2l1.41.73S37.32,17.86,36.7,17.58Z"/><path class="cls-10" d="M36.23,17.24a17.93,17.93,0,0,0-.86-3.44c-.39-.63-.28-.84-.07-1s.25.15.25.15S36.78,16.41,36.23,17.24Z"/><polygon class="cls-10" points="33.8 21.46 36.14 18.62 35.58 19.79 33.72 22.03 33.8 21.46"/><polygon class="cls-10" points="32.36 19.97 31.97 20.04 35.5 17.85 32.36 19.97"/><path class="cls-8" d="M40.1,14.17s-3.3,3-3.66,3.33A19.53,19.53,0,0,0,40.1,14.17Z"/><path class="cls-10" d="M33,14.35s.47,0,.57.15c-.22-.34-.3-.37-.3-.37Z"/><path class="cls-10" d="M40,21.86s-.54.71-.62.66a3.11,3.11,0,0,1-.3-.28s.34-.41.44-.36A1.37,1.37,0,0,0,40,21.86Z"/><polygon class="cls-10" points="33.47 23.09 35.67 21.41 35.73 22.11 30.04 26.59 29.82 26.02 33.47 23.09"/><path class="cls-8" d="M36.31,18.48l2,2.28-1-.89-.87-.94s-.6,1.39-.42,1.67a3.58,3.58,0,0,0,2.47,1.55,3.06,3.06,0,0,1-2.5-1.06C35.39,20.21,35.5,20,36.31,18.48Z"/><path class="cls-10" d="M34.27,15.59s.78,1.21,1,1.48.48.61.25.78-.19-.23-.19-.23S34.19,16,34.27,15.59Z"/><path class="cls-11" d="M35.57,17.79s.33.6.67.66c-.26.37-2.43,3-2.43,3l-1.1-.31L32.36,20Z"/><path class="cls-11" d="M36.7,17.82A16,16,0,0,0,38.85,19a2.46,2.46,0,0,1,.92.31c.06.11.33.43.56.43s.47,0,.06-.42A11.47,11.47,0,0,0,36.7,17.82Z"/><path class="cls-11" d="M36.23,17.24s-.14.19-.36-.84a9,9,0,0,0-.39-1.55c-.07-.14-.5-1.1,0-.9A26.54,26.54,0,0,1,36.23,17.24Z"/><path class="cls-7" d="M74.08,94.58s1.8-3.23,3.25-3.88a5.59,5.59,0,0,1,1.1-.36s.09,0,.14,0,.1-.08.15-.09a3.67,3.67,0,0,1,1.72,0c.26.14,2.24.22,3,.85a16.21,16.21,0,0,1,1.09,2.33,8.61,8.61,0,0,1,.64,1.63c.08.9.2,1.2.32,1.32a.19.19,0,0,1,.05.14,11,11,0,0,1-.1,1.49,4.57,4.57,0,0,1-.32.62.79.79,0,0,1-.13.62,5.06,5.06,0,0,1-1.19,1,1.87,1.87,0,0,1-.54.08s-1.13,1-1.59.93-2-.23-2.06-.26-3.66,3.08-3.66,3.08l-1-.23-.26-.5,3-3.07s-1.38-.93-1.54-1.08-1-1.14-1-1.14l-2.62,3.53-.52-.31-.35-.86,2.66-4.12A10.3,10.3,0,0,1,74.08,94.58Z"/><path class="cls-8" d="M76.74,93.05l-.55.57A5.52,5.52,0,0,0,76.48,95c.18.3.72,1.07,1.08,1a1.93,1.93,0,0,0,1-.33c.25-.2.52-.4.34-.58S77,93.34,76.74,93.05Z"/><path class="cls-8" d="M80,96.23s-.47,1.17-.21,1.58a3.39,3.39,0,0,0,1.75,1.11,2.79,2.79,0,0,0,1.06,0s.44-.43.33-.51S80.5,96.68,80,96.23Z"/><path class="cls-8" d="M76.44,97.6l-.36.11a5.81,5.81,0,0,0,.36,1.36,6.15,6.15,0,0,0,1.46.28l0-.53-1-.17Z"/><path class="cls-9" d="M74.46,96.39l-2.66,4.12.35.86L76,95.81s-.17-.4-.39-.89a4.11,4.11,0,0,1-.11-1.57s-.26-.57-.17-.69-1.24,1.79-1.24,1.92A9,9,0,0,0,74.46,96.39Z"/><path class="cls-10" d="M79.63,98.58l.12.64a6.12,6.12,0,0,0,1.88.76,7.43,7.43,0,0,0,1.26-.2l-.13-.32a4.69,4.69,0,0,1-1.88-.21C80.35,98.95,79.63,98.58,79.63,98.58Z"/><path class="cls-10" d="M75.49,93.35a3.69,3.69,0,0,0,0,1.59c.22.4.53.87.53.87l.57.14a6.5,6.5,0,0,1-.87-1.51C75.6,94,75.49,93.35,75.49,93.35Z"/><path class="cls-10" d="M78.12,90.63s-1,.53-1,.92a2.63,2.63,0,0,0,.24,1.14s-.2-1.06,0-1.25S78.12,90.63,78.12,90.63Z"/><path class="cls-10" d="M80.18,95a7,7,0,0,1,1.59,0l1.37.52S80.77,95.15,80.18,95Z"/><path class="cls-10" d="M79.71,94.7a16.58,16.58,0,0,0-1.15-3.07c-.43-.53-.35-.74-.17-.92s.24.11.24.11S80.13,93.88,79.71,94.7Z"/><polygon class="cls-10" points="77.92 98.83 79.77 95.98 79.38 97.1 77.9 99.35 77.92 98.83"/><polygon class="cls-10" points="76.44 97.6 76.08 97.71 79.1 95.33 76.44 97.6"/><path class="cls-8" d="M82.95,91.47s-2.72,3.13-3,3.44A18.06,18.06,0,0,0,82.95,91.47Z"/><path class="cls-10" d="M76.44,92.37s.43,0,.54.07c-.24-.29-.32-.31-.32-.31Z"/><path class="cls-10" d="M83.69,98.55s-.42.71-.5.67a2.88,2.88,0,0,1-.3-.22s.27-.41.37-.38A1.27,1.27,0,0,0,83.69,98.55Z"/><polygon class="cls-10" points="77.78 100.36 79.63 98.58 79.75 99.22 74.99 103.92 74.73 103.43 77.78 100.36"/><path class="cls-8" d="M79.91,95.83,82,97.72l-1-.71-.9-.78s-.41,1.34-.21,1.58A3.31,3.31,0,0,0,82.26,99a2.83,2.83,0,0,1-2.41-.71C79.25,97.51,79.32,97.28,79.91,95.83Z"/><path class="cls-10" d="M77.74,93.39s.84,1,1,1.26.51.51.31.69-.2-.19-.2-.19S77.71,93.77,77.74,93.39Z"/><path class="cls-11" d="M79.16,95.27s.37.51.68.54c-.2.37-1.92,3-1.92,3l-1-.17-.44-1.05Z"/><path class="cls-11" d="M80.2,95.18a14.79,14.79,0,0,0,2.1.91,2.28,2.28,0,0,1,.88.19c.07.09.35.36.56.34s.43-.08,0-.39A10.6,10.6,0,0,0,80.2,95.18Z"/><path class="cls-11" d="M79.71,94.7s-.11.19-.42-.73a8.3,8.3,0,0,0-.52-1.38c-.08-.12-.57-1-.12-.83A24.54,24.54,0,0,1,79.71,94.7Z"/></g></g></svg>