<svg xmlns="http://www.w3.org/2000/svg" viewBox="0 0 384.13 299.56"><defs><style>.cls-1{fill:#31725c;}.cls-2,.cls-3{fill:none;stroke-miterlimit:10;}.cls-2{stroke:#231f20;}.cls-3{stroke:#000;}.cls-4{fill:#16343a;}.cls-5{fill:#030605;}.cls-6{fill:#133236;}.cls-7{fill:#c1c7c6;}.cls-8{fill:#231f20;}.cls-9{fill:#90683b;}.cls-10{fill:#bbbab8;}.cls-11{fill:#727c7d;}.cls-12{fill:#5e6769;}.cls-13{fill:#767d7f;}.cls-14{fill:#464646;}.cls-15{fill:#05080a;}.cls-16{fill:#31755c;}.cls-17{fill:#434647;}</style></defs><title>Asset 5cooler</title><g id="Layer_2" data-name="Layer 2"><g id="ODD"><polygon class="cls-1" points="40.4 180.2 76.88 166.5 120.96 177.16 122.48 165.99 117.92 138.58 131.09 109.14 141.73 91.88 151.87 81.72 141.22 81.22 132.61 68.02 131.6 59.39 147.81 40.61 174.66 23.35 189.36 18.78 192.9 20.81 212.66 7.61 243.57 0 270.93 1.52 294.74 12.18 333.75 24.36 346.92 36.55 349.46 46.7 347.43 57.87 349.46 77.66 362.63 131.98 363.64 150.76 360.1 174.62 357.56 182.23 376.82 170.05 383.4 169.54 383.4 299.56 40.12 299.56 0 299.36 0.99 237.28 15.13 204.75 40.4 180.2"/><polyline class="cls-2" points="221.2 66.56 200.87 89.35 190.09 127.85"/><polyline class="cls-2" points="199.33 221.79 178.69 201.47 162.98 175.28 160.83 144.18 164.22 131.85"/><line class="cls-3" x1="181.16" y1="30.52" x2="192.9" y2="20.77"/><polygon points="254.16 217.48 234.13 207.01 207.95 180.83 200.56 167.28 195.94 150.95 196.87 126.62 201.79 108.14 222.43 71.79 250.46 44.38 280.03 34.83 296.05 34.83 339.48 49.62 333.01 49.92 340.71 62.55 334.86 58.86 329 63.78 334.24 82.88 338.86 123.85 341.32 142.94 341.94 151.88 339.17 161.43 331.77 164.81 320.99 180.21 307.44 195.92 289.27 202.7 271.1 212.56 254.16 217.48"/><polygon class="cls-4" points="185.47 46.54 173.61 59.67 165.36 70.4 157.37 86.09 151.04 102.06 149.66 109.77 142.51 127.39 139.75 140.6 141.41 156.29 148.84 181.62 151.87 191.25 151.59 200.34 138.1 195.66 130.4 184.09 130.4 178.86 138.1 185.47 130.12 171.98 129.29 160.42 127.64 152.99 127.09 133.72 132.32 118.58 137.28 111.14 144.44 92.15 152.97 83.89 164.11 70.51 172.37 58.06 180.84 49.59 185.47 46.54"/><polygon class="cls-5" points="76.88 166.18 85.47 170.83 103.82 175.2 117.5 181.32 118.96 187.14 126.82 191.8 115.75 193.84 107.02 197.33 118.08 195.87 127.69 196.16 133.81 198.2 145.74 204.9 158.85 205.77 164.09 209.27 168.75 209.56 174.57 211.89 169.04 207.23 163.8 204.9 158.56 202.28 151.59 200.34 138.1 195.66 130.4 184.09 130.4 178.86 138.1 185.47 130.12 171.98 129.29 160.42 127.64 152.99 127.09 133.72 132.32 118.58 137.28 111.14 144.44 92.15 152.97 83.89 164.11 70.51 172.37 58.06 180.84 49.59 185.47 46.54 178.81 49.35 171.24 56.93 162.86 67.24 159.32 74.17 153.68 79.97 151.87 81.57 141.73 91.7 131.09 108.93 117.92 138.31 122.48 165.67 120.96 176.82 76.88 166.18"/><polyline class="cls-2" points="357.56 181.89 350.24 194.09 336.38 207.95 354.58 205.24 360.29 207.68 370.07 209.04"/><polygon points="236.92 230.51 245.61 237.84 252.68 240.83 264.09 237.03 258.66 241.1 260.56 242.46 255.94 243.01 250.5 243.28 240.99 239.47 231.48 237.84 237.73 237.03 236.92 230.51"/><polyline class="cls-2" points="254.16 217.48 254.85 223.44 254.58 228.6"/><polyline class="cls-2" points="254.28 231.04 253.52 234.39 251.23 240.17"/><polygon class="cls-6" points="174.66 23.31 158.71 35.69 150.2 46.11 141.98 62.56 141.7 68.32 148.56 79.29 151.87 81.57 141.22 81.06 132.61 67.89 131.6 59.28 147.81 40.53 174.66 23.31"/><polygon class="cls-4" points="162.98 175.28 169.47 190.87 169.19 197.61 166.94 201.26 158.56 202.28 169.04 207.23 174.57 211.89 178.73 211.92 183.5 216.98 190.52 219.5 199.33 221.79 178.69 201.47 162.98 175.28"/><path class="cls-7" d="M221.2,222.28a10.19,10.19,0,0,1-8.92-6.11c-2.39-5-.78-10.82,3.59-12.9a7.75,7.75,0,0,1,3.35-.75,10.19,10.19,0,0,1,8.91,6.11c2.39,5,.78,10.82-3.59,12.9A7.76,7.76,0,0,1,221.2,222.28Z"/><path class="cls-8" d="M219.23,203a9.72,9.72,0,0,1,8.46,5.82c2.28,4.79.78,10.27-3.36,12.23a7.28,7.28,0,0,1-3.14.7,9.72,9.72,0,0,1-8.46-5.82c-2.28-4.79-.78-10.27,3.36-12.23a7.28,7.28,0,0,1,3.14-.7m0-1h0a8.25,8.25,0,0,0-3.57.8c-4.62,2.2-6.34,8.28-3.83,13.56a10.69,10.69,0,0,0,9.37,6.39,8.25,8.25,0,0,0,3.57-.8,8.68,8.68,0,0,0,4.62-5.69,11.37,11.37,0,0,0-.79-7.87,10.69,10.69,0,0,0-9.37-6.39Z"/><path class="cls-7" d="M280.36,228.52a8,8,0,0,1-5.17-1.81,8.19,8.19,0,0,1-2.89-6.28,10.87,10.87,0,0,1,2.59-7.11,10.69,10.69,0,0,1,8-4,8,8,0,0,1,5.16,1.81c3.73,3.09,3.86,9.1.3,13.38A10.69,10.69,0,0,1,280.36,228.52Z"/><path class="cls-8" d="M282.94,209.84a7.5,7.5,0,0,1,4.84,1.7c3.52,2.92,3.63,8.6.24,12.68a10.13,10.13,0,0,1-7.66,3.8,7.5,7.5,0,0,1-4.84-1.7c-3.52-2.92-3.63-8.6-.24-12.68a10.13,10.13,0,0,1,7.66-3.8m0-1h0a11.19,11.19,0,0,0-8.43,4.16c-3.73,4.5-3.57,10.82.37,14.09a8.47,8.47,0,0,0,5.48,1.93,11.19,11.19,0,0,0,8.43-4.16c3.73-4.5,3.57-10.82-.37-14.09a8.47,8.47,0,0,0-5.48-1.93Z"/><ellipse cx="281.21" cy="219.67" rx="5.45" ry="4.7" transform="translate(-67.4 295.83) rotate(-50.32)"/><ellipse cx="220.11" cy="213.09" rx="4.43" ry="5.14" transform="translate(-70.16 115.12) rotate(-25.42)"/><polygon class="cls-9" points="222.4 210 218.3 211.28 216.5 215.13 214.45 283.92 217.01 288.02 223.94 285.97 226.25 283.4 227.02 216.67 225.23 213.08 222.4 210"/><path class="cls-10" d="M217.68,282.43l.24,11.64s.95,2.85,3.09,2.61a3,3,0,0,0,2.61-2.14l-.24-12.35a4.66,4.66,0,0,0-3.09-1.19A2.91,2.91,0,0,0,217.68,282.43Z"/><polygon class="cls-9" points="281.5 214.28 277.51 215.88 276.03 219.87 279.49 288.6 282.38 292.48 289.12 289.88 291.22 287.14 286.64 220.56 284.56 217.12 281.5 214.28"/><polygon class="cls-11" points="292.33 207.42 316.7 205.83 317.23 228.34 297.1 231.52 292.33 207.42"/><circle class="cls-12" cx="304.1" cy="191.83" r="19.92"/><polygon class="cls-13" points="332.55 225.57 341.77 241.06 342.13 256.17 344.35 263.91 344.71 273.86 346.93 282.34 344.94 299.37 300.57 299.37 271.29 298.02 266.78 294.64 264.98 288.56 265.88 284.06 269.94 280.68 311.83 270.99 267.68 279.78 264.08 276.63 262.5 272.35 262.28 266.49 264.08 261.99 267.46 259.06 307.55 245.09 267.07 258.01 263.98 257.81 262.75 254.72 262.75 251.32 263.63 247.69 268.79 238.48 317.44 221.52 329.6 222.63 332.55 225.57"/><polygon class="cls-12" points="317.44 221.52 325.25 223.75 328.71 227.01 328.51 232.2 326.79 236.42 325.25 239.11 322.56 241.41 322.75 243.91 326.98 248.71 327.94 252.93 327.94 258.88 325.44 264.26 323.52 267.52 323.33 270.78 324.1 274.81 325.63 277.12 328.32 282.3 328.13 287.1 327.17 292.48 325.44 295.93 323.91 299.19 300.57 299.37 271.29 298.02 266.78 294.64 264.98 288.56 265.88 284.06 269.94 280.68 311.83 270.99 267.68 279.78 264.08 276.63 262.5 272.35 262.28 266.49 264.08 261.99 267.46 259.06 307.55 245.09 267.07 258.01 263.98 257.81 262.75 254.72 262.75 251.32 263.63 247.69 268.79 238.48 317.44 221.52"/><polygon class="cls-14" points="243.35 277.18 256.25 249.53 260.47 250.94 259.79 257.7 261.49 260.41 260.98 262.44 257.93 268.7 255.57 269.2 252.52 271.91 249.31 276.81 246.27 281.38 243.35 277.18"/><polygon class="cls-14" points="258.95 271.4 255.91 271.4 252.52 275.12 249.99 278.84 248.3 283.41 259.57 299.29 265.71 299.37 262.67 293.55 262.33 287.63 263.85 283.75 260.13 279.52 258.95 271.4"/><polygon class="cls-15" points="256.25 249.53 263.63 247.69 262.75 251.32 262.75 254.72 263.98 257.81 267.07 258.01 307.55 245.09 267.46 259.06 264.08 261.99 262.28 266.49 262.5 272.35 264.08 276.63 267.68 279.78 311.83 270.99 269.94 280.68 265.88 284.06 264.98 288.56 266.78 294.64 271.29 298.02 300.57 299.37 265.71 299.37 262.67 293.55 262.33 287.63 263.85 283.75 260.13 279.52 259.29 274.44 258.95 271.4 255.91 271.4 252.52 275.12 249.99 278.84 248.3 283.41 246.27 281.38 249.31 276.81 252.52 271.91 255.57 269.2 257.93 268.7 260.98 262.44 261.49 260.41 259.79 257.7 260.47 250.94 256.25 249.53"/><polygon class="cls-16" points="346.93 282.34 344.94 299.37 383.4 298.99 383.49 243.13 369.87 237.37 357.1 234.49 341.04 225.02 332.55 225.57 341.77 241.06 342.13 256.17 344.35 263.91 344.71 273.86 346.93 282.34"/><polygon class="cls-17" points="358.54 293.54 359.59 284.33 358.54 274.33 356.17 264.6 354.33 259.6 353.81 252.5 352.75 247.5 348.28 241.18 344.33 236.45 337.75 234.08 341.77 241.06 342.13 256.17 344.35 263.91 344.71 273.86 346.93 282.34 344.94 299.37 357.23 299.37 358.54 293.54"/><polyline class="cls-2" points="369.87 237.37 355.97 238.02 349.89 243.34"/><polyline class="cls-2" points="352.36 231.93 347.8 231.93 344.33 236.45"/><polygon class="cls-8" points="344.56 227.37 337.91 227.56 339.62 234.22 337.75 234.08 332.55 225.57 341.04 225.02 344.56 227.37"/><polyline class="cls-2" points="383.53 251.7 372.32 246.76 366.23 246.57 359.58 247.71 353.81 252.5"/><polyline class="cls-2" points="383.91 263.87 376.88 260.45 370.23 258.74 364.33 258.55 360.72 259.31 356.17 264.6"/><polyline class="cls-2" points="358.54 274.33 361.48 270.9 369.85 270.9 375.93 273.18 383.72 275.84"/><polyline class="cls-2" points="383.91 285.73 378.4 283.64 370.23 280.98 365.85 280.79 361.86 282.69 359.59 284.33"/><polyline class="cls-2" points="358.54 293.54 362.05 292 369.85 293.14 378.02 296.37 383.87 298.32"/></g></g></svg>