<svg xmlns="http://www.w3.org/2000/svg" viewBox="0 0 302.08 270.75"><defs><style>.cls-1{fill:#b2a18e;}.cls-2{fill:#cfb595;}.cls-3{fill:#c1af95;}.cls-4{fill:none;stroke:#414042;stroke-miterlimit:10;opacity:0.54;}.cls-5{fill:#d9c8b3;}.cls-6{fill:#817266;}.cls-7{opacity:0.57;}.cls-8{fill:#333;}.cls-12,.cls-9{fill:#f8f9db;}.cls-10{fill:#1e5131;}.cls-11{fill:#6d9c71;}.cls-12{font-size:16.1px;font-family:DollarBill, Dollar Bill;}.cls-13{fill:#a7a9ac;}.cls-14{fill:#414042;}.cls-15{fill:#939598;}.cls-16{fill:#6d6e71;}.cls-17{fill:#bcbec0;}</style></defs><title>Asset 10dollar</title><g id="Layer_2" data-name="Layer 2"><g id="_500" data-name="500"><polygon class="cls-1" points="140.52 0.64 243.97 244.57 302.08 245.21 171.81 0 140.52 0.64"/><polygon class="cls-2" points="226.09 268.84 243.97 244.57 140.52 0.64 136.69 25.54 226.09 268.84"/><polygon class="cls-3" points="72.83 270.75 226.09 268.84 136.69 25.54 50.48 21.71 72.83 270.75"/><polyline class="cls-4" points="201.03 54.98 164.1 54.98 158.59 83.65 55.51 81.44"/><polygon class="cls-5" points="260.95 169.29 215.27 176.01 206.87 206.57 206.2 210.6 200.82 211.95 191.75 209.26 185.71 208.59 181.68 204.9 177.98 199.52 178.99 194.15 182.35 191.46 178.32 189.11 175.63 185.41 177.31 182.05 180 178.36 183.02 178.36 186.38 178.36 190.75 175.67 196.46 188.44 198.81 184.4 200.15 170.3 202.5 163.58 203.84 152.49 210.56 148.13 228.03 145.1 244.83 144.77 248.86 145.77 260.95 169.29"/><polygon class="cls-6" points="50.48 21.71 19.04 87.8 0 254.21 72.83 270.75 50.48 21.71"/><g class="cls-7"><path class="cls-8" d="M94.07,92.4s9.5,15.21,30.64,33.35a474.82,474.82,0,0,1,34.64,32.61l11.75,15.14s-23.35,21.35-25.26,23.7-11.48,11.54-11.48,11.54-13.49-17.55-21-24.16-39.11-34.3-41.38-37S56.88,128,56.88,128Z"/></g><path class="cls-9" d="M133.35,204.41c-2.86-3.68-13.83-17.6-20.44-23.42l-2.53-2.22c-10-8.82-36.72-32.26-38.74-34.7s-12.08-15.57-14.55-18.79L92.77,91.12c2.53,3.73,12.24,17.19,30.17,32.56,20.85,17.89,34.43,32.39,34.56,32.53l11.13,14.35c-3.94,3.6-22.91,21-24.68,23.18C142.42,195.62,135.69,202.16,133.35,204.41Z"/><path class="cls-10" d="M92.61,92.66c3.32,4.77,12.79,17.29,29.68,31.78,20.1,17.24,33.42,31.32,34.42,32.39l10.56,13.61c-5.33,4.88-22.36,20.53-24.1,22.67-1.26,1.55-6.49,6.69-9.71,9.81-3.65-4.66-13.66-17.19-19.89-22.67L111,178c-9.06-8-36.65-32.19-38.61-34.57-1.83-2.21-10.84-13.94-14-18.05L92.61,92.66m.34-3.09L55.75,125.18S68.61,142,70.87,144.72s33.87,30.43,41.38,37,21,24.16,21,24.16,9.57-9.19,11.48-11.54S170,170.68,170,170.68l-11.75-15.14a474.83,474.83,0,0,0-34.64-32.61c-21.15-18.14-30.64-33.35-30.64-33.35Z"/><path class="cls-11" d="M133.41,199.58c-2.78-3.49-13-16.2-19.14-21.58L112,176c-9.33-8.21-34.12-30-36-32.27s-11.3-14.23-13.7-17.28l30.43-30c2.48,3.52,11.67,15.85,28.19,30.06,19.34,16.65,32,30.06,32.17,30.19l10.46,13.18c-3.57,3.35-19.64,18.48-21.13,20.41C141.09,191.9,135.5,197.5,133.41,199.58Z"/><path class="cls-10" d="M92.53,98c3.24,4.48,12.16,15.93,27.68,29.28,18.64,16,31.09,29.07,32,30.06l9.89,12.45c-4.77,4.48-19.1,18-20.57,19.9-1,1.33-5.31,5.67-8.08,8.44-3.53-4.4-12.83-15.78-18.56-20.83l-2.37-2.08c-8.41-7.4-34-29.93-35.86-32.12C75,141,66.62,130.37,63.58,126.5L92.53,98m.29-3.09L60.9,126.33s12.14,15.48,14.28,18,31.47,28.28,38.44,34.42,19.71,22.32,19.71,22.32,8.21-8.12,9.83-10.2S164.85,170,164.85,170l-11.09-14s-12.63-13.39-32.24-30.27S92.82,94.87,92.82,94.87Z"/><text class="cls-12" transform="translate(83.53 127.16) rotate(44.79)">$500$</text><path class="cls-13" d="M85.95,106s2.32-3.26,4-3.77a6,6,0,0,1,1.22-.25c.05,0,.09.06.15.06s.12-.08.18-.08a4,4,0,0,1,1.84.26c.26.18,2.38.51,3.11,1.27a17.53,17.53,0,0,1,.89,2.64,9.31,9.31,0,0,1,.49,1.82c0,1,.07,1.31.18,1.46a.21.21,0,0,1,0,.15,11.88,11.88,0,0,1-.29,1.59,5,5,0,0,1-.42.63.86.86,0,0,1-.21.65,5.47,5.47,0,0,1-1.4.93,2,2,0,0,1-.59,0s-1.33.9-1.82.81-2.09-.49-2.18-.53-4.3,2.87-4.3,2.87l-1-.37-.22-.57,3.64-2.93s-1.38-1.16-1.53-1.34S86.8,110,86.8,110l-3.24,3.48-.52-.4-.27-1L86.13,108A11.13,11.13,0,0,1,85.95,106Z"/><path class="cls-14" d="M89,104.69l-.66.54a6,6,0,0,0,.14,1.52c.16.34.65,1.24,1,1.25a2.09,2.09,0,0,0,1.12-.24c.29-.18.61-.37.43-.58S89.22,105,89,104.69Z"/><path class="cls-14" d="M92.14,108.5s-.64,1.2-.42,1.67a3.66,3.66,0,0,0,1.75,1.41,3,3,0,0,0,1.14.14s.52-.41.41-.51S92.59,109,92.14,108.5Z"/><path class="cls-14" d="M88.11,109.54l-.4.07a6.29,6.29,0,0,0,.22,1.51,6.66,6.66,0,0,0,1.53.48l.09-.56-1.1-.31Z"/><path class="cls-15" d="M86.13,108l-3.36,4.11.27,1,4.81-5.5s-.13-.45-.31-1a4.44,4.44,0,0,1,.07-1.7s-.21-.65-.1-.76S86,105.87,85.95,106A9.75,9.75,0,0,0,86.13,108Z"/><path class="cls-16" d="M91.42,111l.05.7a6.62,6.62,0,0,0,1.92,1,8,8,0,0,0,1.38-.06l-.1-.36a5.07,5.07,0,0,1-2-.45C92.15,111.46,91.42,111,91.42,111Z"/><path class="cls-16" d="M87.61,104.86a4,4,0,0,0-.22,1.71c.18.46.47,1,.47,1l.6.22a7,7,0,0,1-.76-1.73C87.65,105.54,87.61,104.86,87.61,104.86Z"/><path class="cls-16" d="M90.77,102.25s-1.09.45-1.22.86a2.85,2.85,0,0,0,.12,1.25s-.08-1.16.17-1.34S90.77,102.25,90.77,102.25Z"/><path class="cls-16" d="M92.46,107.15a7.57,7.57,0,0,1,1.71.2l1.41.73S93.07,107.43,92.46,107.15Z"/><path class="cls-16" d="M92,106.81a17.93,17.93,0,0,0-.86-3.44c-.39-.63-.28-.84-.07-1s.25.15.25.15S92.53,106,92,106.81Z"/><polygon class="cls-16" points="89.56 111.03 91.89 108.19 91.33 109.36 89.47 111.6 89.56 111.03"/><polygon class="cls-16" points="88.11 109.54 87.72 109.61 91.25 107.42 88.11 109.54"/><path class="cls-14" d="M95.85,103.74s-3.3,3-3.66,3.33A19.53,19.53,0,0,0,95.85,103.74Z"/><path class="cls-16" d="M88.75,103.92s.47,0,.57.15c-.22-.34-.3-.37-.3-.37Z"/><path class="cls-16" d="M95.8,111.43s-.54.71-.62.66a3.11,3.11,0,0,1-.3-.28s.34-.41.44-.36A1.37,1.37,0,0,0,95.8,111.43Z"/><polygon class="cls-16" points="89.22 112.67 91.42 110.98 91.48 111.68 85.79 116.16 85.58 115.59 89.22 112.67"/><path class="cls-14" d="M92.06,108.05l2,2.28-1-.89-.87-.94s-.6,1.39-.42,1.67a3.58,3.58,0,0,0,2.47,1.55,3.06,3.06,0,0,1-2.5-1.06C91.14,109.78,91.25,109.54,92.06,108.05Z"/><path class="cls-16" d="M90,105.17s.78,1.21,1,1.48.48.61.25.78-.19-.23-.19-.23S89.95,105.57,90,105.17Z"/><path class="cls-17" d="M91.32,107.36s.33.6.67.66c-.26.37-2.43,3-2.43,3l-1.1-.31-.34-1.18Z"/><path class="cls-17" d="M92.45,107.39a16,16,0,0,0,2.15,1.23,2.46,2.46,0,0,1,.92.31c.06.11.33.43.56.43s.47,0,.06-.42A11.47,11.47,0,0,0,92.45,107.39Z"/><path class="cls-17" d="M92,106.81s-.14.19-.36-.84a9,9,0,0,0-.39-1.55c-.07-.14-.5-1.1,0-.9A26.54,26.54,0,0,1,92,106.81Z"/><path class="cls-13" d="M129.83,184.15s1.8-3.23,3.25-3.88a5.59,5.59,0,0,1,1.1-.36s.09,0,.14,0,.1-.08.15-.09a3.67,3.67,0,0,1,1.72,0c.26.14,2.24.22,3,.85a16.21,16.21,0,0,1,1.09,2.33,8.61,8.61,0,0,1,.64,1.63c.08.9.2,1.2.32,1.32a.19.19,0,0,1,.05.14,11,11,0,0,1-.1,1.49,4.57,4.57,0,0,1-.32.62.79.79,0,0,1-.13.62,5.06,5.06,0,0,1-1.19,1,1.87,1.87,0,0,1-.54.08s-1.13,1-1.59.93-2-.23-2.06-.26-3.66,3.08-3.66,3.08l-1-.23-.26-.5,3-3.07s-1.38-.93-1.54-1.08-1-1.14-1-1.14l-2.62,3.53-.52-.31-.35-.86,2.66-4.12A10.3,10.3,0,0,1,129.83,184.15Z"/><path class="cls-14" d="M132.49,182.62l-.55.57a5.52,5.52,0,0,0,.28,1.38c.18.3.72,1.07,1.08,1a1.93,1.93,0,0,0,1-.33c.25-.2.52-.4.34-.58S132.74,182.91,132.49,182.62Z"/><path class="cls-14" d="M135.79,185.8s-.47,1.17-.21,1.58a3.39,3.39,0,0,0,1.75,1.11,2.79,2.79,0,0,0,1.06,0s.44-.43.33-.51S136.26,186.26,135.79,185.8Z"/><path class="cls-14" d="M132.19,187.17l-.36.11a5.81,5.81,0,0,0,.36,1.36,6.15,6.15,0,0,0,1.46.28l0-.53-1-.17Z"/><path class="cls-15" d="M130.21,186l-2.66,4.12.35.86,3.85-5.55s-.17-.4-.39-.89a4.11,4.11,0,0,1-.11-1.57s-.26-.57-.17-.69-1.24,1.79-1.24,1.92A9,9,0,0,0,130.21,186Z"/><path class="cls-16" d="M135.38,188.16l.12.64a6.12,6.12,0,0,0,1.88.76,7.43,7.43,0,0,0,1.26-.2l-.13-.32a4.69,4.69,0,0,1-1.88-.21C136.1,188.52,135.38,188.16,135.38,188.16Z"/><path class="cls-16" d="M131.24,182.92a3.69,3.69,0,0,0,0,1.59c.22.4.53.87.53.87l.57.14a6.5,6.5,0,0,1-.87-1.51C131.35,183.55,131.24,182.92,131.24,182.92Z"/><path class="cls-16" d="M133.87,180.2s-1,.53-1,.92a2.63,2.63,0,0,0,.24,1.14s-.2-1.06,0-1.25S133.87,180.2,133.87,180.2Z"/><path class="cls-16" d="M135.94,184.53a7,7,0,0,1,1.59,0l1.37.52S136.53,184.72,135.94,184.53Z"/><path class="cls-16" d="M135.46,184.27a16.58,16.58,0,0,0-1.15-3.07c-.43-.53-.35-.74-.17-.92s.24.11.24.11S135.89,183.45,135.46,184.27Z"/><polygon class="cls-16" points="133.67 188.4 135.52 185.55 135.13 186.68 133.65 188.93 133.67 188.4"/><polygon class="cls-16" points="132.19 187.17 131.84 187.28 134.85 184.9 132.19 187.17"/><path class="cls-14" d="M138.7,181s-2.72,3.13-3,3.44A18.06,18.06,0,0,0,138.7,181Z"/><path class="cls-16" d="M132.19,181.94s.43,0,.54.07c-.24-.29-.32-.31-.32-.31Z"/><path class="cls-16" d="M139.45,188.12s-.42.71-.5.67a2.88,2.88,0,0,1-.3-.22s.27-.41.37-.38A1.27,1.27,0,0,0,139.45,188.12Z"/><polygon class="cls-16" points="133.53 189.93 135.38 188.16 135.5 188.79 130.75 193.5 130.49 193 133.53 189.93"/><path class="cls-14" d="M135.67,185.4l2.06,1.89-1-.71-.9-.78s-.41,1.34-.21,1.58a3.31,3.31,0,0,0,2.43,1.16,2.83,2.83,0,0,1-2.41-.71C135,187.08,135.07,186.85,135.67,185.4Z"/><path class="cls-16" d="M133.49,183s.84,1,1,1.26.51.51.31.69-.2-.19-.2-.19S133.46,183.34,133.49,183Z"/><path class="cls-17" d="M134.91,184.84s.37.51.68.54c-.2.37-1.92,3-1.92,3l-1-.17-.44-1.05Z"/><path class="cls-17" d="M136,184.75a14.79,14.79,0,0,0,2.1.91,2.28,2.28,0,0,1,.88.19c.07.09.35.36.56.34s.43-.08,0-.39A10.6,10.6,0,0,0,136,184.75Z"/><path class="cls-17" d="M135.46,184.27s-.11.19-.42-.73a8.3,8.3,0,0,0-.52-1.38c-.08-.12-.57-1-.12-.83A24.54,24.54,0,0,1,135.46,184.27Z"/></g></g></svg>