<svg xmlns="http://www.w3.org/2000/svg" viewBox="0 0 201.02 271.29"><defs><style>.cls-1{fill:#ddecec;}.cls-2{fill:none;stroke:#ddecec;stroke-miterlimit:10;stroke-width:7px;}</style></defs><title>Asset 15flask</title><g id="Layer_2" data-name="Layer 2"><g id="Layer_10" data-name="Layer 10"><path class="cls-1" d="M100.19,42.28c1.1,0,2.22,0,3.33,0l87.94,2.61h.21A2.4,2.4,0,0,1,194,47.3V258.91a2.4,2.4,0,0,1-2.37,2.37h-.23l-90.28,3-91.55-3H9.37A2.4,2.4,0,0,1,7,258.91V47.3a2.4,2.4,0,0,1,2.37-2.37h.21l87.26-2.61c1.11,0,2.24-.05,3.35-.05m0-7q-1.78,0-3.56.05L9.37,37.94A9.39,9.39,0,0,0,0,47.3V258.91a9.39,9.39,0,0,0,9.37,9.37l91.78,3,90.51-3a9.39,9.39,0,0,0,9.37-9.37V47.3a9.39,9.39,0,0,0-9.37-9.37l-87.94-2.61q-1.77-.05-3.54-.05Z"/><path class="cls-2" d="M76.88,13.74V8.47s14.25-4.65,22.62-5,23.24,4,23.24,4l.31,6.82-3.72,1.86L119,28.92l2.17,4-5,.93.31,4.34L84,38.84v-5H78.73l3.41-5-.93-12.39Z"/></g></g></svg>