<svg xmlns="http://www.w3.org/2000/svg" viewBox="0 0 181.18 235.08"><defs><style>.cls-1{fill:#a7a9ac;}.cls-2{fill:#414042;}.cls-3{fill:#939598;}.cls-4{fill:#6d6e71;}.cls-5{fill:#bcbec0;}</style></defs><title>Asset 1record</title><g id="Layer_2" data-name="Layer 2"><g id="Layer_1-2" data-name="Layer 1"><path class="cls-1" d="M8.58,138.54S-6.2,83.14,3,60.35a86.58,86.58,0,0,1,8.43-15.79c.43-.65,1.54-.49,2-1.11s.26-2.07.72-2.68c8.17-10.86,16.79-17.16,19.66-18C38.14,21.56,61.17,1.19,76.31,0c5.61-.44,34.76,13.69,37.23,14.31s21,8.08,24.62,11.24c10.54,9.17,15.07,11.21,17.74,11.29a2.94,2.94,0,0,1,2.08,1c3.2,3.49,13.6,14.92,14.89,17.76,1.53,3.36,3.06,10.4,3.06,10.4s5.25,3.64,5.25,8.23-.05,19.6-2.5,23.88a29,29,0,0,1-5.2,6.73s-2.14,22.94-7.65,27.52S141.37,151,140.15,151.59c-.92,2.75-7.65,73.7-7.65,73.7l-13.15,7.65-8.26-2.75.92-67s-25.4,4.59-28.75,4.59-22.93-2.45-22.93-2.45l8.87,67.59L60,235.08l-13.15-5.81L32.19,154.65S11.57,142.62,8.58,138.54Z"/><path class="cls-2" d="M21.79,92.87v12.23s12.84,11,18,12.4,19.57,4.14,23.24,0,7-9.64,7.65-14.54,1.53-10.09-2.45-10.09S27.61,93.49,21.79,92.87Z"/><path class="cls-2" d="M92.74,92.87s7.34,18,14.68,19.88,23.55-1.32,31.5-6.47A43.25,43.25,0,0,0,150.85,95s.31-9.48-1.83-9.17S102.84,92.87,92.74,92.87Z"/><path class="cls-2" d="M67.4,146.85l-2.79,5s15.28,11.32,18.65,11.32,19.27-12.54,19.27-12.54l-5.45-6.12-13.51,9.33Z"/><path class="cls-3" d="M32.19,154.65l14.68,74.62L60,235.08,43.2,131.71S37,129,29.24,126s-18.15-16.3-18.15-16.3-9-3.57-9.35-5.87,5.44,33.28,6.83,34.72S26.83,152.84,32.19,154.65Z"/><path class="cls-4" d="M113.54,123.46l8.26,5.81s23.26-5.79,29.06-11.76,11.91-15.76,11.91-15.76l-4.89-2.19s-14.07,15.67-23.24,17.95S113.54,123.46,113.54,123.46Z"/><path class="cls-4" d="M11.09,109.69s10.09,15.9,16.82,18,15.29,4,15.29,4l8-4.59s-19.88-3.26-26-7.44S11.09,109.69,11.09,109.69Z"/><path class="cls-4" d="M11.09,51S6.19,67.13,9.41,72.37,24.32,82.44,24.32,82.44,10.76,72.77,11.09,68.34,11.09,51,11.09,51Z"/><path class="cls-4" d="M80.64,77S93.78,61.88,98.4,60s20.93-9,20.93-9S89.36,72.88,80.64,77Z"/><path class="cls-4" d="M72.6,79.28S37.2,58.72,26.7,57.35,14.82,52.79,14.82,48.9s3.88-1.37,3.88-1.37S68.49,65.58,72.6,79.28Z"/><polygon class="cls-4" points="97.08 144.56 87.04 92.88 94.78 109.69 102.53 150.67 97.08 144.56"/><polygon class="cls-4" points="67.39 146.85 64.61 151.9 72.6 92.88 67.39 146.85"/><path class="cls-2" d="M74,8.43s3.42,64.14,3.42,70.85C79.31,71.8,78.2,19.39,74,8.43Z"/><path class="cls-4" d="M11.09,88.56s4.48-5,6.83-5c-5.8-.63-6.83,0-6.83,0Z"/><path class="cls-4" d="M158.44,79.28s2.88,12.42,1.64,12.83a44.64,44.64,0,0,1-5.76.76s-1.44-7.55,0-8.17S158.44,79.28,158.44,79.28Z"/><polygon class="cls-4" points="112.01 163.21 113.54 123.46 121.8 129.27 119.35 232.94 111.09 230.19 112.01 163.21"/><path class="cls-2" d="M87,89.69l43.36-1.13-19.31,3.35-18.35,1s9.9,19.36,14.68,19.88,27,.85,39.66-13.2c-.62,3.92-19.78,20-34.57,18S96,112.21,87,89.69Z"/><path class="cls-4" d="M36.53,85.83S57,88.31,61.72,88.56s11.14.24,10.88,4.31-4.32,0-4.32,0S40.31,90.42,36.53,85.83Z"/><path class="cls-5" d="M72.61,91.6S82.22,93.4,86,90.26c1.71,6.31,11,54.3,11,54.3l-13.51,9.33-16.17-7Z"/><path class="cls-5" d="M83.26,79.28s28.09-8.7,33.19-12.55,10.1-7.6,11.85-7.35,7.74.25,9.86-2.25,3.88-5.5-4.12-4.5S86.94,73,83.26,79.28Z"/><path class="cls-5" d="M72.6,79.28s.85,3.33-12.58-3.67S41.6,66.34,39.35,65.85s-16.68-4.47-10.18-8C38,61.24,47.7,65.93,72.6,79.28Z"/></g></g></svg>