<svg xmlns="http://www.w3.org/2000/svg" viewBox="0 0 242.33 256.12"><defs><style>.cls-1{fill:#808285;}.cls-2{fill:#414042;}</style></defs><title>Asset 13run</title><g id="Layer_2" data-name="Layer 2"><g id="Layer_8" data-name="Layer 8"><circle class="cls-1" cx="159.54" cy="24.49" r="24.49"/><path class="cls-1" d="M44.75,99.09l16.87,9.64L84.91,72.59h26.91L90.93,116.76s-5.22,19.28-6,29.32-3.21,33.33-3.21,33.33-1.2,6.83-8.43,7.23-51.4-.4-51.4-.4L1.77,210.34l90.76.8s9.64-3.61,10.84-9.24,10.84-53,10.84-53L164,256.12h26.1L141.53,137.25s-1.2-4.42,1.61-10L162,89.46l22.09,27.71a13,13,0,0,0,8.43,4.42c5.22.4,49.8,0,49.8,0l-1.2-21.69H196.55s-24.9-37.75-28.92-40.16S150,50.5,131.09,50.5s-48.19.4-48.19.4-9.64-.8-15.66,9.64S44.75,99.09,44.75,99.09Z"/><path class="cls-2" d="M55,150a32.25,32.25,0,0,1-45.6-45.6C22,91.76,51,83.17,63.63,95.77S67.64,137.36,55,150Z"/><path class="cls-2" d="M70.31,98.25c-1.16,1.16-6.07,2.09-8.6-.44s-1.72-7.56-.56-8.72,4.15,0,6.68,2.48S71.47,97.09,70.31,98.25Z"/></g></g></svg>