<svg xmlns="http://www.w3.org/2000/svg" viewBox="0 0 330.17 234.32"><defs><style>.cls-1{fill:#eee7e5;}.cls-2{fill:#f3bc63;}.cls-3{fill:#f9d97d;}.cls-4{fill:#965825;}.cls-5{fill:#9b652c;}.cls-6{fill:#cb7b29;opacity:0.6;}.cls-7{fill:#d3912e;opacity:0.36;}.cls-8{fill:#845321;opacity:0.72;}.cls-9{fill:#4b2914;}.cls-14,.cls-9{opacity:0.51;}.cls-10{fill:#0b0506;opacity:0.5;}.cls-11{fill:#a86938;}.cls-12{fill:#d2ac84;}.cls-13{fill:#26110b;opacity:0.47;}.cls-14{fill:#070404;}.cls-15{fill:#0d0607;}.cls-16{fill:#0e0607;}.cls-17{fill:#33160c;}.cls-18{fill:#250e0f;}.cls-19{fill:#06070a;}.cls-20{fill:#050403;}.cls-21{fill:#fbb040;}.cls-22{fill:#a54a24;}</style></defs><title>Asset 3sqr</title><g id="Layer_2" data-name="Layer 2"><g id="Squirell"><path class="cls-1" d="M314.37,147.2s-4.45,33.78-27.82,57.38-53.8,16.33-53.8,16.33-32.94-19.27-32.14-46.83a144.41,144.41,0,0,1,9.58-48s9-15.81,10.7-17.91,67.57,5,77.13,12.87S316,139.17,314.37,147.2Z"/><path class="cls-2" d="M238.06,187.22a47.85,47.85,0,0,0,11.81,4.27,31.88,31.88,0,0,0,13.1.3c.53-.1,1-.26,1.56-.38s1-.33,1.52-.48,1-.46,1.58-.67a11.06,11.06,0,0,0,1.59-.74l1.55-.85c.53-.28,1-.67,1.48-1a27,27,0,0,0,10.62-15.29,30.33,30.33,0,0,0,.9-8,31,31,0,0,0-1.54-8.19,21.35,21.35,0,0,0-10.21-12,22.25,22.25,0,0,0-16.32-1.79,17.63,17.63,0,0,0-3.83,1.45l-.89.46-.83.55a14.88,14.88,0,0,0-1.6,1.21,17.36,17.36,0,0,0-4.72,6.51,17.66,17.66,0,0,0-1.42,8,18.23,18.23,0,0,0,2.13,7.66,14.83,14.83,0,0,0,12.71,7.29,14.64,14.64,0,0,0,7.14-1.72,12.17,12.17,0,0,0,4.81-5,12,12,0,0,0,1.17-3.22,12.25,12.25,0,0,0,.28-3.34,11.1,11.1,0,0,0-.2-1.64,10.69,10.69,0,0,0-.39-1.59,9.84,9.84,0,0,0-1.33-2.79,10.69,10.69,0,0,0-9.84-4.55,9.27,9.27,0,0,0-7.4,4.54,9.56,9.56,0,0,0-1.15,3.21,9.93,9.93,0,0,0,0,2.55,9,9,0,0,0,.32,1.56l.15.53-.22-.5a9.08,9.08,0,0,1-.51-1.54,9.88,9.88,0,0,1,.57-6.24,10,10,0,0,1,2.82-3.76,11.66,11.66,0,0,1,5.13-2.42,13.09,13.09,0,0,1,6.61.29,12.89,12.89,0,0,1,3.37,1.55,13.16,13.16,0,0,1,3,2.59,13.57,13.57,0,0,1,2.23,3.55,14.63,14.63,0,0,1,.74,2,15.27,15.27,0,0,1,.51,2.14,17.57,17.57,0,0,1-1,9.22,17.89,17.89,0,0,1-6.23,8,21.16,21.16,0,0,1-10.12,3.7,23,23,0,0,1-20.82-9.33,24.23,24.23,0,0,1-1.69-2.7c-.24-.47-.52-.95-.73-1.42l-.59-1.43a22.66,22.66,0,0,1-1-3,25.85,25.85,0,0,1-.68-3.1,28.42,28.42,0,0,1,.92-12.91,29.19,29.19,0,0,1,6.74-11.64,27.27,27.27,0,0,1,2.53-2.38l1.36-1.1c.47-.34,1-.66,1.45-1a25.09,25.09,0,0,1,3-1.76l.79-.41.78-.33,1.57-.64a36.3,36.3,0,0,1,13.48-2.4,37,37,0,0,1,13.66,2.83,37.37,37.37,0,0,1,11.8,7.8,38.13,38.13,0,0,1,8.13,11.71,46,46,0,0,1-1,39.51A45.09,45.09,0,0,1,285,204.3c-.85.66-1.67,1.37-2.56,2L279.77,208a26.57,26.57,0,0,1-2.77,1.52c-.95.47-1.85,1-2.83,1.38s-2,.82-3,1.16-2,.66-3,.91a51.81,51.81,0,0,1-22.56.63,60.82,60.82,0,0,1-9.56-2.53,64.5,64.5,0,0,1-8.32-3.56c-1.3-.63-2.53-1.37-3.78-2.07s-2.45-1.48-3.62-2.31a64.81,64.81,0,0,1-6.75-5.26,62.93,62.93,0,0,1-6-6.14,56.69,56.69,0,0,1-5.06-7.09,47.49,47.49,0,0,1-3.8-8.07c-.27-.7-.46-1.44-.69-2.16a22.18,22.18,0,0,1-.58-2.21c-.16-.73-.35-1.52-.46-2.2l-.29-1.93a65.54,65.54,0,0,1-.42-15.26,66.38,66.38,0,0,1,8.28-26.4,79.6,79.6,0,0,1,41.65-35.14c7.16-2.43,11.5-2.37,12.07-1s-2.48,4.21-7.74,8.71S237.78,109.85,230.73,119a73.54,73.54,0,0,0-9.32,15.78,52.28,52.28,0,0,0-4.23,19.27,48.78,48.78,0,0,0,.93,10.42l.26,1.32c.09.4.2.68.28,1a6.92,6.92,0,0,0,.32,1c.13.34.21.68.37,1a27.43,27.43,0,0,0,2.16,4.11C225,178.5,231.1,183.67,238.06,187.22Z"/><path class="cls-3" d="M314.37,147.2s14.23-7.14,15.34-16.47.65-18.07-6.68-25.55-23.89-21.43-23.89-21.43-7.76-7.83-6.29-13.17,4.12-13,4.12-13a17.71,17.71,0,0,0-3.48-2.86C290.92,53,284.09,51,283,51.65s-3.55,5.88-3.62,8.2-.76,10.74-2.29,11.49S246,73.6,239.62,74.43s-27.34,6.31-31.56,17.69,5.83,27.5,5.83,27.5l7-11.45s41.92,5.63,50.94,9.37,36.72,16.23,39.69,19.23S314.37,147.2,314.37,147.2Z"/><polygon class="cls-4" points="199.66 75.11 216.7 93.89 216.7 116.88 219.83 128.9 217.48 134.65 213.56 136.22 209.75 136.22 209.75 138.83 216.7 139.88 219.83 144.06 222.45 146.93 223.49 152.68 222.47 157.01 220.1 162.29 215.72 162.29 208.61 164.3 208.79 168.13 207.15 168.13 206.24 165.58 201.5 165.21 203.14 164.12 201.32 161.75 199.66 162.66 196.94 160.47 192.93 164.48 188.74 165.21 184.91 169.41 181.26 171.05 179.25 171.05 178.21 176.34 179.44 179.8 178.21 185.82 172.51 198.77 167.04 206.61 178.21 205.69 186.91 202.78 190.01 202.41 192.2 204.05 193.48 206.61 202.41 215 204.24 219.19 203.69 223.38 200.59 223.38 198.22 221.93 193.29 221.56 191.11 223.38 183.08 221.56 179.44 219.19 177.43 220.28 175.61 219.19 173.78 217.18 170.14 216.64 167.04 218.28 162.48 217.73 156.28 219.19 150.26 219.55 145.88 219.19 139.32 221.01 139.32 223.38 144.61 227.4 146.61 229.77 145.15 231.41 141.87 230.13 139.32 231.41 139.32 234.32 136.58 233.23 132.57 232.68 130.38 230.31 128.56 231.41 128.56 234.32 126.74 234.32 124.55 230.86 122.18 231.41 122.18 233.59 120.35 234.32 120.35 232.32 116.71 230.31 114.52 231.04 113.06 232.87 110.14 232.68 107.41 234.32 106.5 231.59 104.85 229.95 81.88 222.47 73.85 212.63 66.38 190.74 44.49 171.59 33.55 152.08 25.16 127.83 25.16 110.69 32.46 96.83 29.91 92.44 18.05 93.73 4.92 101.02 0 91.36 0 70.39 5.65 55.62 8.02 32.64 34.65 5.83 65.47 0 95.74 10.76 117.98 27.72 128.01 50.69 129.65 66.56 125.46 81.15 137.13 86.07 142.6 84.25 154.45 70.94 159.92 44.68 160.84 30.82 162.66 26.08 168.86 27.72 178.21 38.29 181.81 48.14 182.17 59.45 184.91 57.62 185.82 46.32 187.28 29.54 188.74 23.71 191.65 25.53 199.31 36.11 202.96 43.95 203.32 56.71 203.14 63.09 199.66 75.11"/><polygon class="cls-5" points="104.73 83.4 73.63 112.5 63.81 135.38 66.38 190.74 44.49 171.59 33.55 152.08 25.16 127.83 25.16 110.69 32.46 96.83 29.91 92.44 18.05 93.73 4.92 101.02 0 91.36 0 70.39 5.65 55.62 8.02 32.64 34.65 5.83 65.47 0 95.74 10.76 117.98 27.72 128.01 50.69 129.65 66.56 125.46 81.15 104.73 83.4"/><polygon class="cls-6" points="85.91 150.52 120.69 165.66 139.93 173.03 163.25 173.03 173.25 168.5 179.25 171.05 178.21 176.34 179.44 179.8 178.21 185.82 172.51 198.77 167.04 206.61 155.74 208.33 154.59 202.56 147.47 198.71 144 203.32 142.47 207.37 134.96 209.87 132.67 214.87 127.08 214.87 124.96 218.52 122.07 218.52 117.26 210.83 116.69 200.82 111.75 195.05 110.92 188.32 106.3 187.16 104.95 184.52 100.72 180.43 97.64 183.32 95.91 176.97 98.8 171.97 88.6 157.34 82.25 153.88 81.1 148.3 85.91 150.52"/><polygon class="cls-7" points="154.45 70.94 151.54 93.97 151.54 105.65 156.22 112.5 156.22 124.34 156.22 129.35 151.54 132.36 148.54 139.37 148.54 143.71 150.21 148.3 148.54 155.06 148.54 161.06 146.87 168.74 148.2 173.03 163.25 173.03 173.25 168.5 179.25 171.05 184.91 169.41 188.74 165.21 192.93 164.48 196.94 160.47 199.66 162.66 201.32 161.75 203.14 164.12 201.5 165.21 206.24 165.58 207.15 168.13 208.79 168.13 208.61 164.3 215.72 162.29 220.1 162.29 222.47 157.01 223.49 152.68 222.45 146.93 219.83 144.06 216.7 139.88 209.75 138.83 209.75 136.22 213.56 136.22 217.48 134.65 219.83 128.9 216.7 116.88 216.7 93.89 199.66 75.11 203.14 63.09 202.96 43.95 199.31 36.11 191.65 25.53 188.74 23.71 187.28 29.54 184.91 57.62 182.17 59.45 181.81 48.14 178.21 38.29 168.86 27.72 162.66 26.08 160.84 30.82 159.92 44.68 154.45 70.94"/><polygon class="cls-8" points="192.52 138.01 174.37 129.32 163.64 121.91 163.64 110.15 167.72 100.95 169.26 89.7 179.44 80.5 182.29 72.83 182.17 59.45 184.91 57.62 186.89 65.68 199.66 75.11 216.7 93.89 216.7 116.88 219.83 128.9 217.48 134.65 213.56 136.22 209.75 136.22 201.21 138.01 192.52 138.01"/><polygon class="cls-9" points="151.54 93.97 169.26 89.7 179.44 80.5 182.29 72.83 182.17 59.45 181.81 48.14 178.21 38.29 168.86 27.72 162.66 26.08 160.84 30.82 159.92 44.68 154.45 70.94 151.54 93.97"/><polygon class="cls-10" points="199.66 75.11 186.89 65.68 184.91 57.62 185.82 46.32 187.28 29.54 188.74 23.71 191.65 25.53 199.31 36.11 202.96 43.95 203.32 56.71 203.14 63.09 199.66 75.11"/><polygon class="cls-11" points="207.19 136.75 204.97 143.49 208.91 147.24 208.91 151.04 211.52 153.18 211.52 156.74 210.11 157.69 211.52 160.49 211.52 163.48 215.72 162.29 220.1 162.29 222.47 157.01 223.49 152.68 222.45 146.93 219.83 144.06 216.7 139.88 209.75 138.83 209.75 136.22 207.19 136.75"/><polygon class="cls-12" points="137.06 204.93 132.03 195.53 127.23 192.69 121.33 183.41 116.09 179.15 111.75 175.88 114.78 170.2 121.99 174.57 127.01 176.31 134.22 176.75 138.81 183.41 144.26 181.34 151.54 181.34 153.88 184.83 153 188.54 149.51 190.74 149.94 197.5 144.26 193.35 142.3 189.85 141.21 194.22 137.06 204.93"/><polygon class="cls-13" points="19.13 68.57 33.23 60.02 48.95 60.02 54.37 68.57 49.49 75.11 43.53 75.11 36.75 85.37 24.55 88.08 32.69 75.11 28.89 70.19 19.13 68.57"/><polygon class="cls-14" points="129.65 66.56 105.87 74.05 83.64 80.5 70.09 92.44 56.54 105.43 49.49 129.35 49.49 146.09 54.37 166.69 65.74 177.02 63.81 135.38 73.63 112.5 104.73 83.4 125.46 81.15 129.65 66.56"/><polygon class="cls-15" points="142.47 207.37 143.63 213.99 152.79 219.4 150.26 219.55 145.88 219.19 139.32 221.01 139.32 223.38 136 219.32 132.67 214.87 134.96 209.87 142.47 207.37"/><polygon class="cls-16" points="177.43 220.28 178.21 216.76 177.43 214.78 176.83 209.91 180.26 210.96 180.26 213.6 181.44 215.37 183.08 221.56 179.44 219.19 177.43 220.28"/><polygon class="cls-17" points="185.18 209.38 186.18 210.7 186.18 212.02 190 215.37 192.11 218.52 193.29 221.56 198.22 221.93 200.59 223.38 200.59 220.31 199.23 218.52 195.93 218.52 191.85 214.65 191.06 211.09 189.35 209.91 185.18 209.38"/><polygon class="cls-18" points="128.68 224.54 130.38 230.31 132.57 232.68 134.52 232.68 132.81 229.98 128.68 224.54"/><polygon class="cls-19" points="207.19 136.75 208.67 130.75 209.8 132.86 209.37 134.43 209.75 136.22 207.19 136.75"/><polygon class="cls-20" points="182.29 97.82 180.75 101.28 181.52 105.4 185.18 107.71 190.64 107.71 192.95 108.86 191.74 103.34 189.49 98.37 185.18 97.32 182.29 97.82"/><path class="cls-21" d="M186.05,173.39c1.46,1.12,4.6.37,6.24-2.43s.81-5.82-.85-6.62-4.44.23-5.86,2.65-1,5.27.47,6.39m-2.62,3.22a10.9,10.9,0,0,1-3.17-6,8.82,8.82,0,0,1,1-6.17,9.75,9.75,0,0,1,11.89-3.87,7.79,7.79,0,0,1,4.57,5.21,9.93,9.93,0,0,1-1.14,7.72,10.3,10.3,0,0,1-6.43,4.86A7.29,7.29,0,0,1,183.43,176.61Z"/><path class="cls-21" d="M177.46,181.21a3,3,0,0,0,2.71,1.56,6.14,6.14,0,0,0,4.31-1.7,5.91,5.91,0,0,0,2-3.92,3.3,3.3,0,0,0-1.08-2.87c-1.49-1.11-4.36-.63-6.18,1.05a6,6,0,0,0-1.73,2.9,4.68,4.68,0,0,0,0,3m-4.1.88a16.89,16.89,0,0,1,.51-3.47,18.54,18.54,0,0,0,.47-2.95c.12-1.73.24-2.89,1.47-4a9.69,9.69,0,0,1,5.3-2.17,10.14,10.14,0,0,1,6.65,1.4,7.6,7.6,0,0,1,3.55,6,10,10,0,0,1-3.45,7.9,12.2,12.2,0,0,1-4.71,2.71,10.21,10.21,0,0,1-5.21.27,5.84,5.84,0,0,1-3.58-2.2A5.64,5.64,0,0,1,173.36,182.09Z"/><path class="cls-21" d="M166.26,180a3.11,3.11,0,0,0,.33,3.06,5.83,5.83,0,0,0,4,2.48,4.34,4.34,0,0,0,1.4.08,8.93,8.93,0,0,0,1.3-.19,4.49,4.49,0,0,0,1.18-.43,3.88,3.88,0,0,0,.95-.63,2.78,2.78,0,0,0,1-3,5.6,5.6,0,0,0-1.9-2.23l-.59-.44-.62-.39a3.14,3.14,0,0,0-.7-.3c-.25-.06-.5-.11-.77-.18a6.47,6.47,0,0,0-3.21.36,4.24,4.24,0,0,0-2.4,1.8m-3.47-2.25a12.82,12.82,0,0,1,5.54-3.83c1.92-.67,3.45-1.16,4.35-1a1.63,1.63,0,0,0,.34.09.82.82,0,0,1,.3.15c.22.16.18.3.3.53l.18.35a2.36,2.36,0,0,0,.27.38,7.63,7.63,0,0,0,.92.8c1.47,1.09,3.63,2.24,5.1,4.21a6.05,6.05,0,0,1,.41,7.11,7.92,7.92,0,0,1-1.67,1.86,10.87,10.87,0,0,1-1.22.84,14.85,14.85,0,0,1-1.44.67,11.33,11.33,0,0,1-3.23.7c-.53,0-1,.05-1.57,0a7.06,7.06,0,0,1-1.57-.16,11.69,11.69,0,0,1-5.24-2.24,12.6,12.6,0,0,1-1.7-1.7,9.52,9.52,0,0,1-1.05-1.86A6.81,6.81,0,0,1,162.79,177.79Z"/><path class="cls-21" d="M157.54,172.17a3.32,3.32,0,0,0-1,2.89,6.16,6.16,0,0,0,6,5.37,3.16,3.16,0,0,0,2.75-1.36,4.15,4.15,0,0,0,.26-3,6,6,0,0,0-1.78-3c-1.91-1.72-4.76-2-6.21-.88m-2.44-3.28a11.08,11.08,0,0,1,6.56-1.63,8.93,8.93,0,0,1,5.45,2.1,7.39,7.39,0,0,1,2.24,4.81,18.46,18.46,0,0,1,.16,3.17,12.19,12.19,0,0,1-.57,3.46,6.75,6.75,0,0,1-1.94,3,6.91,6.91,0,0,1-3.45,1.54,10.58,10.58,0,0,1-8.4-2.8A10,10,0,0,1,151.7,175,7.25,7.25,0,0,1,155.11,168.89Z"/><polygon class="cls-22" points="168.29 138.01 179.44 142.01 192.52 138.01 201.31 140.01 208.91 147.24 208.91 151.04 211.52 153.18 211.52 156.74 210.11 157.69 211.52 160.49 211.52 163.48 208.61 164.3 204.39 160.49 201.84 156.84 197.7 153.92 198.79 157.08 200.86 159.51 201.32 161.75 199.66 162.66 196.94 160.47 192.93 164.48 188.74 165.21 184.91 169.41 178.21 170.61 173.25 168.5 163.25 173.03 148.2 173.03 146.87 168.74 148.54 161.06 148.54 155.06 150.21 148.3 148.54 143.71 148.54 139.37 151.54 132.36 156.22 129.35 162.3 134.58 168.29 138.01"/></g></g></svg>