<svg xmlns="http://www.w3.org/2000/svg" viewBox="0 0 509.71 323.62"><defs><style>.cls-1{fill:#5b3419;}.cls-2{fill:#734a26;}.cls-3{fill:#1b100c;}.cls-4{fill:#965b25;}.cls-5{fill:#9a5f26;}.cls-6{fill:#54acd8;}.cls-7{fill:#744a30;}.cls-8{fill:#856043;}.cls-9{fill:#7b491f;}.cls-10{fill:#8e5623;}.cls-11{fill:#633312;}.cls-12{fill:#a9a9a7;}.cls-13{fill:#bab6a9;}.cls-14{fill:#6b6a5d;}.cls-15{fill:#8f9591;}.cls-16{opacity:0.64;}.cls-17{fill:none;stroke:#fbb040;stroke-miterlimit:10;}.cls-18{fill:#fbb040;}.cls-19{fill:#ebc28b;}.cls-20{fill:#daa148;}.cls-21{fill:#231f20;}.cls-22{fill:#a7a9ac;}.cls-23{fill:#414042;}.cls-24{fill:#939598;}.cls-25{fill:#6d6e71;}.cls-26{fill:#bcbec0;}</style></defs><title>Asset 11wanted</title><g id="Layer_2" data-name="Layer 2"><g id="Layer_6" data-name="Layer 6"><polyline class="cls-1" points="19.19 116.21 396.89 108.85 396.89 285.11 218.59 286.13 193.12 282.06 191.1 280.43 191.56 276.51 182.09 276.51 182.79 280.89 179.32 281.36 174.25 276.97 135.69 276.97 129.92 277.2 118.84 277.66 114.23 281.13 92.07 284.36 67.6 283.89 65.75 285.74 21.2 284.82 20.97 279.74"/><polygon class="cls-2" points="193.66 160.82 212.61 158.64 363.26 158.64 362.64 274.81 213.54 274.19 194.59 271.09 193.66 160.82"/><polygon class="cls-3" points="363.11 152.61 361.81 126.68 68.78 131.86 68.78 155.85 363.11 152.61"/><polygon class="cls-2" points="117.56 167.03 109.17 163.3 89.61 160.82 69.73 161.44 70.66 273.57 90.23 273.26 110.73 272.33 117.25 269.84 117.56 167.03"/><polygon class="cls-4" points="68.78 131.86 70.69 283.79 67.6 283.89 65.75 285.74 21.2 284.82 20.22 128.19 62.42 127.54 68.78 131.86"/><polygon class="cls-5" points="396.89 285.11 373.51 285.12 373.51 109.36 396.89 108.85 396.89 285.11"/><polygon class="cls-6" points="361.75 160.99 360.23 271.46 217.49 270.7 215.21 162.5 361.75 160.99"/><polygon class="cls-6" points="209.52 162.5 196.99 163.64 196.99 268.8 209.14 270.7 209.52 162.5"/><polygon class="cls-6" points="105.5 165.92 92.59 164.02 92.97 268.8 107.02 267.28 105.5 165.92"/><polygon class="cls-6" points="115.37 168.58 110.44 166.3 110.82 267.28 114.99 264.62 115.37 168.58"/><polygon class="cls-6" points="86.9 162.5 72.09 162.88 73.23 268.8 87.28 268.8 86.9 162.5"/><polygon class="cls-7" points="192.66 164.47 118.81 164.9 118.84 277.66 191.56 276.51 192.66 164.47"/><polygon class="cls-8" points="179.86 190.99 129.97 192.3 129.92 277.2 179.7 276.71 179.86 190.99"/><polygon class="cls-9" points="68.78 131.86 62.42 127.54 65.75 285.74 70.69 283.79 68.78 131.86"/><polygon class="cls-10" points="373.51 285.12 367.86 281.95 367.25 123.97 373.94 119.11 373.51 285.12"/><polygon class="cls-11" points="212.61 158.64 89.61 160.82 109.17 163.3 117.56 167.03 193.65 164.63 193.66 160.82 212.61 158.64"/><polygon class="cls-12" points="396.89 285.11 437.51 283.54 434.97 63.39 18.95 0 19.19 116.21 396.89 108.85 396.89 285.11"/><polyline class="cls-13" points="8.05 304.9 14.43 314.19 509.7 323.62 508.28 311.47 478.48 285.4 437.51 283.54 396.89 285.11 373.51 285.12 218.59 286.13 193.12 282.06 191.1 280.43 191.56 276.51 118.84 277.66 114.23 281.13 92.07 284.36 70.69 283.79 65.75 285.74 21.2 284.82 20.97 279.74 0 279.7"/><polyline class="cls-14" points="8.05 304.9 493.63 311.14 508.28 311.47 509.7 323.62 14.43 314.19"/><polygon class="cls-15" points="172.83 199.08 136.54 198.82 137.07 276.61 174.13 276.08 172.83 199.08"/><g class="cls-16"><path class="cls-17" d="M259.69,209.81c.17,3.63.68,6.75-.53,7.08s-2.79-2.74-3-7.11"/><path class="cls-18" d="M258,211.21c-.34.15-1,2.49,0,6s2.73,5.2,3.08,5.17c.29-.26.2-2.49-.76-5.83s-1.89-5.25-2.29-5.38m-.1-1.37c.62,0,1.18.75,1.72,1.9a30.41,30.41,0,0,1,1.63,4.58c1,3.62,1.44,6.85.32,7.36s-3.43-2.12-4.58-6.17a13.27,13.27,0,0,1-.47-5.38C256.79,210.71,257.34,209.85,257.94,209.84Z"/><path class="cls-18" d="M259.55,218.21c-.3.24-.52,2.59.95,5.93s3.37,4.8,3.73,4.71c.24-.29-.11-2.5-1.52-5.69s-2.75-4.92-3.16-5m-.39-1.32c1.19-.3,2.92,2.41,4.47,5.88s2.32,6.62,1.29,7.27-3.67-1.68-5.34-5.5S258,217.19,259.16,216.9Z"/><path class="cls-18" d="M262.18,224.94c-.27.28-.16,2.63,1.72,5.76s4,4.29,4.36,4.15c.21-.33-.49-2.44-2.3-5.41s-3.37-4.52-3.78-4.51m-.57-1.25c1.12-.47,3.24,2,5.21,5.24s3.22,6.16,2.31,7-3.94-1.1-6.08-4.7S260.48,224.16,261.61,223.69Z"/><path class="cls-18" d="M265.7,231.27c-.21.3.17,2.64,2.56,5.46s4.83,3.47,5.1,3.25c.12-.38-1-2.23-3.27-4.83s-4-4-4.39-3.88M265,230.1c1.07-.63,3.45,1.58,5.88,4.4a35,35,0,0,1,2.93,3.82c.67,1.1,1,2,.68,2.48s-1.36.51-2.67-.08a12.67,12.67,0,0,1-4.28-3.34C264.73,234.15,263.93,230.69,265,230.1Z"/><path class="cls-18" d="M270.1,237c-.09.19.09.8.63,1.7a11,11,0,0,0,3.06,3.13,9.67,9.67,0,0,0,4.14,1.67,6.24,6.24,0,0,0,1.27,0c.31-.06.49-.14.54-.23s-.13-.24-.35-.43a7,7,0,0,0-.93-.73c-.79-.59-1.9-1.32-3.29-2.28-2.72-1.92-4.66-3-5.06-2.84m-.92-1c1-.81,3.63,1,6.54,3l3.75,2.59a6.84,6.84,0,0,1,1.19,1,1.17,1.17,0,0,1,.41.92c0,.3-.28.56-.72.77a4.58,4.58,0,0,1-1.8.27,10.18,10.18,0,0,1-5.34-1.93,11.83,11.83,0,0,1-3.73-4C268.83,237.34,268.72,236.36,269.19,236Z"/><path class="cls-18" d="M275.64,241.6c0,.2.31.74,1.14,1.44a8.49,8.49,0,0,0,4.16,1.73,7.92,7.92,0,0,0,4.52-.67c1-.52,1.4-1,1.38-1.19-.26-.33-2.44-.14-5.59-.54s-5.27-1.07-5.62-.77m-1.16-.74c.74-1,3.72.11,6.91.52a37.76,37.76,0,0,0,4.3.27c1.21,0,2.16.18,2.42.73s-.23,1.44-1.51,2.26a8.79,8.79,0,0,1-5.79,1.12,9.47,9.47,0,0,1-5.26-2.42C274.49,242.29,274.14,241.35,274.48,240.85Z"/><path class="cls-18" d="M282.5,243.67c0,.09.2.22.49.36a6.39,6.39,0,0,0,1.25.3,8.51,8.51,0,0,0,4.43-.87,9.41,9.41,0,0,0,3.48-2.79c.65-.84.83-1.47.76-1.64s-.76.1-1.68.49-2.12,1-3.6,1.76-2.68,1.18-3.57,1.58a7,7,0,0,0-1.08.49,1,1,0,0,0-.47.33m-1.37-.1a1.17,1.17,0,0,1,.63-.78,7.36,7.36,0,0,1,1.4-.69c1.12-.44,2.5-1,4-1.73,3-1.47,5.8-3.15,6.71-2.3.44.42.28,1.41-.5,2.63a10.83,10.83,0,0,1-4.3,3.65,9.09,9.09,0,0,1-5.78.86,4.46,4.46,0,0,1-1.7-.72A1.09,1.09,0,0,1,281.13,243.57Z"/><path class="cls-18" d="M289.33,241.72a2.65,2.65,0,0,0,1.8-.29,10.43,10.43,0,0,0,3.6-2.5,11.64,11.64,0,0,0,2.46-3.61c.41-1,.46-1.61.35-1.76s-.73.25-1.53.87a34.63,34.63,0,0,0-3,2.8c-2.34,2.42-3.72,4-3.68,4.48m-1.21.65c-.26-.56.22-1.37,1-2.34s1.9-2.17,3.18-3.48c2.54-2.61,5-4.76,6-4.11s.15,4.08-2.86,7.2a11.67,11.67,0,0,1-4.64,3C289.38,243.08,288.36,242.91,288.11,242.37Z"/><path class="cls-18" d="M294.83,237.06c.35.14,2.52-.91,4.52-4s2.08-5.5,1.83-5.74c-.39,0-2,1.51-3.86,4.43s-2.65,4.93-2.48,5.31m-.94,1c-.43-.42-.27-1.37.23-2.57a28.23,28.23,0,0,1,2.35-4.29c2-3.15,4.16-5.63,5.3-5.13s.7,4-1.58,7.52a13.67,13.67,0,0,1-3.68,3.92C295.31,238.3,294.33,238.5,293.89,238.07Z"/><path class="cls-18" d="M299.06,231.2c.37.07,2.27-1.34,3.81-4.65s1.33-5.71,1-5.93c-.38,0-1.8,1.74-3.23,4.92s-1.85,5.32-1.61,5.66m-.73,1.17c-1-.69-.14-3.78,1.42-7.24s3.39-6.14,4.56-5.81,1.18,3.85-.54,7.64S299.34,233.06,298.34,232.37Z"/><path class="cls-17" d="M306.25,218.93c-1.15,4-3,6.74-4.1,6.23s-.29-3.64.75-7.33"/><path class="cls-17" d="M302.9,217.84c1.07-3.68,1.86-6.6,3.06-6.51s1.45,3.64.28,7.61"/><path class="cls-18" d="M304.93,217c.36-.05,1.84-1.91,2.24-5.6a9.77,9.77,0,0,0-.46-4.39c-.31-1-.81-1.49-1-1.52s-.28.69-.49,1.67-.29,2.3-.47,4c-.36,3.37-.19,5.59.16,5.84m-.36,1.33c-1.19-.36-1.17-3.62-.8-7.26.1-.92.18-1.76.28-2.53a14.77,14.77,0,0,1,.29-2.09c.15-1.22.55-2.14,1.1-2.29s1.3.49,2,1.82a12.44,12.44,0,0,1,.69,2.46,13.17,13.17,0,0,1,0,3.06C307.72,215.79,305.7,218.7,304.57,218.34Z"/><path class="cls-18" d="M306.06,210c.19-.07.53-.62.76-1.66a14.1,14.1,0,0,0,.17-1.91,13.53,13.53,0,0,0-.37-2.51,11.68,11.68,0,0,0-1-2.36,10,10,0,0,0-1.11-1.56c-.76-.76-1.3-1.08-1.48-1a3.09,3.09,0,0,0,.19,1.73c.12.48.23,1.06.44,1.69s.33,1.38.62,2.16.39,1.52.57,2.16a12.86,12.86,0,0,0,.47,1.67,3.6,3.6,0,0,0,.73,1.61m-.1,1.37c-.61-.06-1.06-.91-1.44-2.12s-.79-2.74-1.2-4.42c-.29-.82-.43-1.65-.69-2.38-.11-.37-.2-.73-.27-1.08s-.2-.66-.27-1c-.23-1.25-.35-2.16.16-2.55s1.48-.09,2.52.94c.27.25.54.54.83.86s.5.72.75,1.13a12,12,0,0,1,1.24,2.87,11,11,0,0,1,.07,5.63C307.22,210.63,306.56,211.38,306,211.32Z"/><path class="cls-18" d="M305,202.86a1,1,0,0,0,.17-.57,5.43,5.43,0,0,0-.12-1.25,6.66,6.66,0,0,0-.58-1.82c-.15-.34-.33-.7-.53-1.07a12.75,12.75,0,0,0-.76-1.1,9.89,9.89,0,0,0-1.74-1.84,7.4,7.4,0,0,0-1.59-1.06c-.92-.51-1.58-.58-1.74-.47s.23.72.76,1.57c.27.42.65.86,1,1.43s.89,1.12,1.36,1.82l.73.93q.32.46.63.86c.44.51.77,1,1.08,1.36a8.8,8.8,0,0,0,.83.87,1,1,0,0,0,.47.32m.43,1.3c-.6.16-1.35-.44-2.13-1.41s-1.73-2.26-2.84-3.64c-.5-.73-1.07-1.36-1.51-2a16.78,16.78,0,0,1-1.23-1.77c-.71-1-1-2-.7-2.46s1.32-.49,2.68,0a11.94,11.94,0,0,1,2.14,1.31,12.33,12.33,0,0,1,2.14,2.22,10.86,10.86,0,0,1,2.22,5.14C306.33,203.07,306,204,305.44,204.17Z"/><path class="cls-18" d="M301.34,196.69c.09-.18-.07-.79-.59-1.73a14.1,14.1,0,0,0-1.17-1.49,13.83,13.83,0,0,0-1.91-1.62,16.33,16.33,0,0,0-2.22-1.18,14.08,14.08,0,0,0-1.83-.52,2.66,2.66,0,0,0-1.8.08c0,.41,1.7,1.76,4.5,3.63.67.51,1.34.88,1.89,1.26a13.19,13.19,0,0,0,1.51.9,3.11,3.11,0,0,0,1.63.67m.86,1.07c-.5.37-1.36,0-2.5-.54s-2.49-1.49-3.94-2.53a41.89,41.89,0,0,1-3.84-2.76c-1-.81-1.56-1.6-1.39-2.17s1.13-.86,2.57-.73a12,12,0,0,1,5.13,2,11.48,11.48,0,0,1,3.76,4.06C302.67,196.36,302.68,197.4,302.2,197.76Z"/><path class="cls-18" d="M295.8,192.12c0-.18-.28-.8-1.1-1.45a10,10,0,0,0-1.55-1.09,13.82,13.82,0,0,0-2.29-1,11.78,11.78,0,0,0-4.35-.53c-1.05.14-1.64.39-1.72.56s.57.53,1.5.89a32.66,32.66,0,0,0,3.84,1.38c.81.24,1.52.51,2.19.65s1.21.35,1.71.44c1,.17,1.6.26,1.77.12m1.17.72c-.33.49-1.33.55-2.55.27a15.46,15.46,0,0,1-2.11-.52c-.78-.18-1.6-.46-2.47-.73s-1.68-.58-2.45-.8-1.44-.57-2-.81a5.44,5.44,0,0,1-1.4-.85.94.94,0,0,1,.11-1.72,5.29,5.29,0,0,1,1.66-.53,8.94,8.94,0,0,1,2.48-.08,13.06,13.06,0,0,1,3,.58,15.42,15.42,0,0,1,2.77,1.22,12.51,12.51,0,0,1,2,1.51C296.92,191.44,297.32,192.32,297,192.83Z"/><path class="cls-18" d="M289.16,189.35c0-.21-.5-.66-1.45-1.08a11,11,0,0,0-4.24-1,12.62,12.62,0,0,0-2.5.14,14.06,14.06,0,0,0-1.83.46c-1,.38-1.49.8-1.52,1,.19.34,2.35.7,5.75.84,1.69.09,3.06.05,4.06,0a3.81,3.81,0,0,0,1.74-.38m1.32.38c-.19.59-1.11.88-2.38,1a14.46,14.46,0,0,1-2.19.07c-.81.05-1.68,0-2.59-.05a39.17,39.17,0,0,1-4.77-.41c-1.27-.22-2.16-.61-2.29-1.18s.55-1.31,1.86-1.91a12.27,12.27,0,0,1,5.38-.91,15.52,15.52,0,0,1,3,.43,13.26,13.26,0,0,1,2.31.91C290.05,188.37,290.67,189.15,290.49,189.72Z"/><path class="cls-18" d="M282,188.47c-.08-.19-.65-.51-1.68-.67a11.06,11.06,0,0,0-4.35.13,12.74,12.74,0,0,0-2.38.78,14,14,0,0,0-1.66.92c-.84.65-1.23,1.16-1.21,1.35a3.07,3.07,0,0,0,1.74,0,13.5,13.5,0,0,0,1.76-.25c.66-.16,1.43-.23,2.26-.46,1.66-.34,3-.72,3.93-1a3.8,3.8,0,0,0,1.58-.81m1.37,0c-.09,1.26-3.15,1.93-6.68,2.78-.88.23-1.76.33-2.53.52s-1.53.22-2.16.31a5.85,5.85,0,0,1-1.64,0,.94.94,0,0,1-.77-1.54,5,5,0,0,1,1.17-1.3,8.92,8.92,0,0,1,2.12-1.31,13.18,13.18,0,0,1,2.86-1,16.76,16.76,0,0,1,3-.34,14.55,14.55,0,0,1,2.46.3C282.62,187.3,283.42,187.9,283.39,188.5Z"/><path class="cls-18" d="M274.94,189.45c-.12-.16-.76-.33-1.8-.22a11.58,11.58,0,0,0-7.59,4c-.63.86-.87,1.44-.79,1.62.37.2,2.37-.65,5.34-2.24,1.49-.78,2.67-1.48,3.51-2s1.3-1,1.32-1.18m1.33-.33c.13.6-.53,1.32-1.59,2a13.88,13.88,0,0,1-1.86,1.15c-.67.45-1.47.79-2.25,1.25q-.59.33-1.18.6c-.38.19-.74.41-1.1.58-.73.33-1.37.66-2,.9a7.36,7.36,0,0,1-.85.28,3.85,3.85,0,0,1-.7.17,1.16,1.16,0,0,1-1-.22,1.1,1.1,0,0,1-.19-1,3.8,3.8,0,0,1,.24-.76,7.32,7.32,0,0,1,.5-.84,8.61,8.61,0,0,1,1.67-1.86,13.22,13.22,0,0,1,1.15-.92c.43-.27.88-.54,1.36-.81a14.52,14.52,0,0,1,2.82-1.13,13.63,13.63,0,0,1,2.46-.36C275.23,188.16,276.14,188.52,276.27,189.12Z"/><path class="cls-18" d="M268.31,192.25c-.17-.14-.79-.07-1.79.29-.25.09-.52.2-.81.34s-.57.33-.88.53-.64.42-1,.67-.64.58-1,.91a9.8,9.8,0,0,0-2.4,3.7c-.38,1-.33,1.66-.21,1.79s.67-.34,1.44-1,1.7-1.62,2.89-2.82c.3-.3.57-.59.82-.87s.53-.51.76-.75.44-.48.63-.71.39-.41.55-.6a3.52,3.52,0,0,0,.94-1.51m1.2-.67c.55,1.12-1.73,3.27-4.19,5.81-.67.6-1.2,1.26-1.8,1.78a15.53,15.53,0,0,1-1.57,1.46c-.89.85-1.77,1.31-2.32,1.07s-.68-1.21-.36-2.67a12.38,12.38,0,0,1,1-2.32,12.7,12.7,0,0,1,1.9-2.42,11.37,11.37,0,0,1,4.67-3C268.22,190.91,269.23,191.06,269.51,191.58Z"/><path class="cls-18" d="M262.79,196.89c-.18-.06-.78.17-1.63.82a14.12,14.12,0,0,0-1.32,1.38,13.74,13.74,0,0,0-1.31,2.16,11.94,11.94,0,0,0-.76,2.43,10.21,10.21,0,0,0-.15,1.92c.1,1.07.32,1.66.49,1.74s.56-.56,1-1.45c.21-.44.51-1,.75-1.58s.63-1.28.91-2.06.67-1.43.94-2a13.06,13.06,0,0,0,.68-1.61,3.16,3.16,0,0,0,.44-1.71m.94-1c.44.43.24,1.35-.19,2.55s-1.12,2.66-1.9,4.22c-.3.82-.73,1.55-1,2.27-.15.35-.32.69-.49,1s-.26.63-.41.9c-.62,1.1-1.09,1.88-1.73,1.86s-1.22-.87-1.36-2.32a11.69,11.69,0,0,1-.09-1.2c0-.42.08-.88.15-1.35a12.14,12.14,0,0,1,.89-3,11.05,11.05,0,0,1,3.49-4.36C262.29,195.62,263.3,195.46,263.73,195.88Z"/><path class="cls-17" d="M256.27,209.64a13.89,13.89,0,0,1,.3-3c.1-.46.21-.89.33-1.28a11,11,0,0,1,.47-1.06c.59-1.28,1.39-1.84,1.93-1.62,1.1.49.42,3.49.49,7"/></g><g id="Layer_7" data-name="Layer 7"><path class="cls-19" d="M222.85,190.73s-3.31,10.83-3.56,14.74c-.48,7.64.64,15.5.37,20.65-.24,4.64-1.71,14.42-1.71,14.42s20.45,4.52,31.27,3.66c1-2.06,2.57-10.87,2.69-16.49.11-5.17.44-12.83.61-17.84.12-3.64,3.66-16.25,3.66-16.25S230.58,191.93,222.85,190.73Z"/><path class="cls-20" d="M225.07,201.56a51.87,51.87,0,0,0-1.56,6.93c-.36,4.36.21,13.61,0,16.55-.19,2.65-1,6.79-1,6.79s15.65,2.75,23.9,2.26c.79-1.18,1.32-4.86,1.41-8.06.09-2.95,1.15-13.55,1.27-16.4.09-2.08.14-5.66.14-5.66S231,202.24,225.07,201.56Z"/><path class="cls-21" d="M229.81,194.47h.12l.06,0a.06.06,0,0,1,0,.05.36.36,0,0,1,0,.08s0,.06-.05.06a.3.3,0,0,0-.2.07l-.18.13V195l-.05,0,0,.14-.08.26-.1.32-.1.31-.07.24,0,.1a1.42,1.42,0,0,1-.06.31c0,.1-.07.2-.11.3s-.07.2-.11.3a1.46,1.46,0,0,0-.06.3.38.38,0,0,0,0,.07v0a.17.17,0,0,1,0,.05l-.07.08-.06.27a2.1,2.1,0,0,0,0,.27.28.28,0,0,0,0,.21.41.41,0,0,0,.14.11l.14.06s.06,0,.06.06l0,.13a.27.27,0,0,1-.13,0h-.69l-.19,0-.18,0-.09,0-.06,0-.08,0h-.62l0-.26a.59.59,0,0,0,.29-.06c.06,0,.1-.13.11-.26a1.77,1.77,0,0,0,0-.3c0-.12,0-.26,0-.42l-.07-.48-.08-.49-.07-.44c0-.14,0-.25-.05-.34a1.38,1.38,0,0,0-.08.22l-.13.43-.16.53-.15.53-.12.43a2.28,2.28,0,0,0-.05.23.35.35,0,0,0,0,.19.91.91,0,0,0,.1.16l.1,0h.11s0,.05,0,.08,0,.06,0,.09a.34.34,0,0,1,0,.07,0,0,0,0,1,0,0l-.08,0-.08,0,0,0,0,0,0,0,0,0-1.06-.06-.32,0h-.12a1.3,1.3,0,0,1-.21,0,.13.13,0,0,1,0,0,.13.13,0,0,1,0,0,.15.15,0,0,1,.06-.12.19.19,0,0,1,.11,0h0v-.05l.12,0,.09-.08,0-.1,0-.1a.52.52,0,0,0,0-.22,1.14,1.14,0,0,1,0-.21c0-.22-.06-.44-.08-.66s0-.44-.08-.65a.52.52,0,0,0,0-.12.23.23,0,0,1,0-.11.14.14,0,0,1,0-.06v0a.08.08,0,0,0,0,0l-.05-.05a1.21,1.21,0,0,1,0-.2,1.2,1.2,0,0,0,0-.2l-.05-.08a.47.47,0,0,0,0-.07v0a.37.37,0,0,0,0-.11v-.12l-.05-.08q0-.12,0-.24a1,1,0,0,0-.05-.22.38.38,0,0,0-.35-.26.12.12,0,0,1,0-.05.48.48,0,0,1,.05-.18,1.21,1.21,0,0,1,.28,0l.24.08.18.07.06,0a.07.07,0,0,0,.06,0l.07,0,.08,0,.17,0,.22,0,.19,0,.07,0,0,.17s-.06.07-.09.07h0a.16.16,0,0,0-.1,0v.05h-.05l0,.08a.48.48,0,0,0,0,.08,1.74,1.74,0,0,0,0,.27c0,.14,0,.32.07.52s.06.42.1.66l.11.67.09.56.05.33c0-.1.07-.23.12-.38s.1-.32.16-.5l.17-.56c.06-.19.11-.38.16-.56s.09-.34.13-.49a2.76,2.76,0,0,0,.06-.35.27.27,0,0,0-.08-.26l-.23-.16s0,0,0-.07a.47.47,0,0,1,0-.07s0-.06,0-.07a.21.21,0,0,1,.09,0l.19,0,.16.06.15.07.17.07,0,0,0,0,.05,0,0,0,.08,0h.21a.22.22,0,0,0,.12,0h.19l.13,0a.09.09,0,0,1,.07.1.12.12,0,0,1-.06.1l-.12.06-.12.07a.19.19,0,0,0-.06.14,1.21,1.21,0,0,0,0,.18,2.18,2.18,0,0,0,0,.24q0,.12,0,.23a.74.74,0,0,0,.05.17.43.43,0,0,1,0,.08s0,.09,0,.15,0,.11,0,.16v.11l.13.86q.07.43.13.86l.06-.18.13-.42.17-.54.16-.54.13-.43.05-.2a1,1,0,0,1,.06-.26A1,1,0,0,0,229,195a.29.29,0,0,0,0-.12.51.51,0,0,0-.06-.12.39.39,0,0,0-.08-.1.19.19,0,0,0-.11,0h0l0,0a.25.25,0,0,1,0-.07.47.47,0,0,1,0-.07.12.12,0,0,1,0-.06l.2,0,.15.05.14.07.17.09.12-.07h.08l0-.06h.21Zm-4.89,1.92h-.1l.11,0v0S224.93,196.4,224.92,196.4Zm0-.17s0,0,0,0,0,0,0,0Zm.21.78s0,0,0,0l0,0a.06.06,0,0,0,0,0s0,0,0,0v0a.13.13,0,0,0,0-.05l0,0Zm0-.14h0a.06.06,0,0,0,0,.05h.05S225.07,196.87,225,196.87Zm0-.23a0,0,0,0,0,0,0v0S225,196.64,225.06,196.64Zm.09.18,0,0s0,0,0,0h.07Zm-.05.32v0a.07.07,0,0,0,0,.08v-.11s0,0,0,0Zm0-.53h0l0,0h0Zm0,.94h0a0,0,0,0,0,0,0s0,0,0,0v0Zm0-2h0l0,0h0v0l0,0Zm.08,1.5,0,0a0,0,0,0,0,0,0h.07Zm-.05.24a.09.09,0,0,0,0,.07s0,0,0,0v0l.06-.06h.05l0,0s0,0,0,0l0,0h0l0-.06.07-.08h.05l0,0,0,0a0,0,0,0,0,0,0h.12a.11.11,0,0,1,0-.06.44.44,0,0,1,0-.06l0,0,0,.28v0h0l.07.46v0h0a1,1,0,0,0,.07.25.58.58,0,0,0,.15.21.7.7,0,0,1-.11-.2,1.57,1.57,0,0,1-.06-.25c0-.08,0-.17,0-.25s0-.15,0-.21l0,0h0l-.11-.71c0-.23-.07-.47-.11-.71l0,0h0l-.06-.41,0,0h0c0-.12,0-.24-.07-.37a1.17,1.17,0,0,1,0-.38.71.71,0,0,1,0-.12v0h-.07l0,.08a1.25,1.25,0,0,0,0,.38c0,.13.05.25.07.36l0,0h0v.1l0,0h0s0,0,0,0h0l.08.58h0l.11.76,0,.05h0a0,0,0,0,1,0,0l0,0a.35.35,0,0,0-.14,0l0,.06,0,0-.05,0,0,0v0h-.06s0,0,0,0l0,0h.05v.14h0Zm0-.56h0Zm0,.77a0,0,0,0,0,0,0h0A0,0,0,0,0,225.17,197.46Zm0,.25,0,0h0l0,0Zm0-.5h0s0,0,0,0h0Zm0-.31,0,0s0,0,0,0h0l0,0s0,0,0,0l0,0h0v0h-.07Zm.08.93,0,0s0,0,0,0h.08Zm0-.59a0,0,0,0,0,0,0h.05v0s0,0,0,0h-.06l.12,0-.05-.06A0,0,0,0,0,225.3,197.26Zm0-.31h0v0h0S225.25,196.94,225.26,196.94Zm0-1.26h0a0,0,0,0,0,0,0s0,0,0,0A0,0,0,0,0,225.26,195.69Zm.87,2.72s0,0,0,0v.05l0,0,0,0h0l0,0h-.29l-.45,0v.06l0,0,.32,0,0,0,0,0,.45,0,0,0,0-.05v-.05A0,0,0,0,0,226.14,198.41Zm-.78-.93s0,0,0,0h0l0,0h-.05v0s0,0,0,0a.05.05,0,0,0,0,0l0,0,.05.06Zm0-.25s0,0,0,0,0,0,0,0h-.05Zm0,1.14v0h0v0h0Zm0-1.25s0,0,0,0h0v0Zm.06,0h0l0-.06v0Zm0,.82v0l0,0s0,0,0,0v0Zm0,.53h0l0,0Zm0-1.43v0h0v0Zm.07,1.34h0a0,0,0,0,0,0,0l0,0v.05h0Zm0-1s0,0,0,0l0,0h0Zm.07.84h0s0,0,0,0,0,0,0,0v0Zm0-.27h0l0,0s0,0,0,0Zm0,.48h0l0,0h0Zm0-1.21h0l0,0Zm.07,1.23s0,0,0,0h0l0,0h0v0Zm0-.56s0,0,0,0,0,0,0,0Zm0,.26h0l0,0h0Zm.14.28,0,0s0,0,0,0h0v-.05a0,0,0,0,0,0,0s0,0,0,0l0,.05H226Zm0-.36a0,0,0,0,0,0,0s0,0,0,0h0S225.94,198,225.92,198Zm.29-.24h0Zm.24-1.37h0Zm.67,2.25h0s0,0,0,0h0A0,0,0,0,0,227.12,198.65Zm.12.05s0,0,0,0h0v0a0,0,0,0,0,0,0h0Zm0-1.66,0,0s0,0,0,0h0l-.08,0v0A0,0,0,0,0,227.26,197Zm0,1.51h0s0,0,0,0h0S227.29,198.55,227.3,198.55Zm0-1.3h0l0,0h0Zm0-.12h0l0,0h0Zm0-.45h0l0,0Zm0,.46h0l0,0h0Zm0,0,0,0v0a.05.05,0,0,1,.07-.05l-.07-.09,0,.08,0,0v0A.06.06,0,0,0,227.4,197.09Zm0,1.15h0v0h0s0,0,0,0v0Zm.94.38,0,0-.23,0v-.06l-.08,0h0s0,0,0,0a.41.41,0,0,1,0-.09H228l0,0s0,0,0,0h-.06a.11.11,0,0,0,0-.08.1.1,0,0,1,0-.08s-.06,0-.06,0a0,0,0,0,1,0,0h0v0a.16.16,0,0,0,0-.05.06.06,0,0,0-.06,0h0v-.06h0l0,0h0v0s0,0,0,0h0s0,0,0,0a0,0,0,0,0,0,0h.05l0,.06-.06,0v0h-.1l0,0-.09.05,0-.08a.05.05,0,0,0,0,0,0,0,0,0,0,0,0l0,0h0a.15.15,0,0,1,0,.09h0s0,0,0,0,0-.05,0,0l.08.06-.06,0a.06.06,0,0,0,0,0s0,0,0,0l0,0,0,0a.13.13,0,0,1,.08.07.21.21,0,0,1,0,.11v.05h-.12v0l0,0,.31,0a.07.07,0,0,0,.06,0h0v0l.38,0,0,0,0-.05Zm-.89-.67V198a0,0,0,0,0,0,0s0,0,0,0v0a0,0,0,0,0,0,0h0v0h0Zm0-.3h0Zm0,.78h0l0,0s0,0,0,0Zm.16-.63v-.06a.13.13,0,0,0,0,0l0,0h0s0,0,0,0v0l0,0h0s0,0,0,0a.2.2,0,0,0,0,.07v0a0,0,0,0,1,0,0s0,0,0,0l0,0h.05l.05.06A.11.11,0,0,0,227.64,197.8Zm-.16-.38h0Zm0-.55s0,0,0,0,0,0,0,0v0s0,0,0,0l0,0Zm0-1.94,0,.12,0,0h0l.33,2.24v0h0l0,.14-.05.06h.06l0,.34-.06,0V198h0s0,0,0,0l0,0,0,0,0,0h0v.1l0,.13a.46.46,0,0,0,.07.12v.09l0,0,0,0v.05a0,0,0,0,0,0,0s0,0,0,0v0h0l-.05-.06v-.08l.08.1-.05-.09h0s0,0,0,0v0a.06.06,0,0,1,0-.06h.05a.08.08,0,0,0,0-.05l0,0,0-.06h-.17v0l.07-.08-.11,0h.07a0,0,0,0,0,0,0v0l-.07,0H228v0h0s0,0,0,0a.08.08,0,0,0,0-.07l0,0,0-.09H228v0h0l-.07-.39-.09-.5-.1-.55q0-.28-.08-.53c0-.17,0-.32-.05-.46a2,2,0,0,1,0-.32.68.68,0,0,1,0-.12v0h-.07l0,.08A.53.53,0,0,0,227.51,194.92Zm0,1.86h0l0,0h0Zm0,1.22h0v0h0s0,0,0,0v0Zm.16-.78a.23.23,0,0,0-.13,0h.13s0,0,0,0Zm-.1,1.48h0Zm0-1.29h0l0,0h0Zm0,.54h.06a.06.06,0,0,0,0,0,.06.06,0,0,0,0,0l0,0,0,0,0,0,0,0v0A.08.08,0,0,0,227.6,198Zm0-.22s-.05,0-.06,0a0,0,0,0,0,0,0h0Zm0,.62s0,0,0,0a.14.14,0,0,1,0,0s0-.05,0,0h0l0,.08S227.69,198.36,227.67,198.36Zm0-1.2h0l0,0h0Zm.09-.28h0l0,0h-.05a0,0,0,0,0,0,0l0,0,.05.06S227.73,196.88,227.75,196.88Zm0,.7h0v0l.06,0v-.05A0,0,0,0,0,227.7,197.58Zm0-.07h0l0,0h0Zm.11,1a.08.08,0,0,1,0,.05l0,0h0l0-.12h0S227.83,198.49,227.83,198.5Zm-.09-.05s0,0,0,0v0a.08.08,0,0,1,0,0h0Zm0-1.09,0,0,0,0h0Zm.13,1.11v.15h0v0A.11.11,0,0,1,227.91,198.47Zm0-1.11s0,0,0,0h0v0a0,0,0,0,0,0,0h0Zm0,.56h0v0Zm.11.15a.06.06,0,0,0,0,0,.09.09,0,0,1,0,.05.06.06,0,0,1,0,0l0-.09,0-.09,0,0Zm.07.21a.11.11,0,0,1,0,.05l0-.1h0S228.13,198.24,228.13,198.28Zm.09-.07v0Zm0-.3h0l0,0h0Zm.24,0a0,0,0,0,0,0,0l0,0a0,0,0,0,1,0,0,.07.07,0,0,1,0,0v0a.13.13,0,0,0,0-.06l-.09,0a.12.12,0,0,0-.06.06.16.16,0,0,1,0,.11.08.08,0,0,1,0,.06h0s0,0,0,0h0s0,0,0,0l0,0h0s0,0,0,0v0h.05Zm-.05-.34h0l0,.07h0a.12.12,0,0,0,.09,0v0h0s0,0,0,0,0,0,0,0h-.05a.59.59,0,0,0,0-.1l0,0s0,0,0,0v0Zm0,.49s0,0,0,0l0,0h0Zm.13-.57h-.05s0,0,0,0Z"/><path class="cls-21" d="M233.23,199.17s0,0,0,.09a.23.23,0,0,1,0,.12h-.07a.24.24,0,0,1-.14-.06.27.27,0,0,0-.14,0h0l-.1-.07a.24.24,0,0,0-.11-.05.17.17,0,0,0-.1,0l-.09,0a.72.72,0,0,1-.26,0h-.28s0,0,0-.05a.43.43,0,0,1,0-.08.13.13,0,0,1,.05-.11.2.2,0,0,1,.12,0h0a.59.59,0,0,0,.15-.13.39.39,0,0,0,.06-.19,1.24,1.24,0,0,0,0-.44,4.22,4.22,0,0,0-.08-.44s-.1,0-.15,0l-1-.09a4.13,4.13,0,0,1-.17.42,1.34,1.34,0,0,0-.13.43.57.57,0,0,0,0,.27.24.24,0,0,0,.22.15h0l0,.06,0,.08a.14.14,0,0,1-.11,0h-.13a.86.86,0,0,1-.23-.06l-.21-.09-.16-.09-.08,0-.2.12a1.17,1.17,0,0,1-.3,0l-.3,0,0-.23h0a.34.34,0,0,0,.25-.07.67.67,0,0,0,.17-.22,1.61,1.61,0,0,0,.11-.29c0-.1.06-.19.09-.27q.24-.69.49-1.37t.48-1.37l0-.13c0-.06,0-.12.05-.18l.06-.17c0-.05,0-.09.05-.09h.29l.36,0a1.46,1.46,0,0,1,.36.05,3,3,0,0,1,.09.55l.13.81.14.92c0,.31.1.61.15.88s.09.5.14.69a1.07,1.07,0,0,0,.11.35v.06h.06V199l.13.1.07,0Zm-3.07-.42a.37.37,0,0,0,.12-.1l-.05-.09a.51.51,0,0,1-.22.16l0,0v.05l0,0Zm.35-.18a1.39,1.39,0,0,1,.07-.3,5.74,5.74,0,0,1,.23-.58l.25-.56a1.54,1.54,0,0,0,.14-.46h0l.09-.26,0,0s0,0,0,0h-.06l0-.07h0v0a.47.47,0,0,1,0-.07l.05-.15.06-.16,0-.11,0,0h0l.21-.61a.09.09,0,0,1,0,0,0,0,0,0,0,0,0,0,0,0,0,1,0,0l0,0h0l-.3.84,0,0h0l-.08.23h0v0h0l0,0v.05l-.05,0h0l0-.08,0,.07s0,0,0,0l0,0,0,0v0a.09.09,0,0,0,0,.06l-.05,0h0s0,0,0,0a.14.14,0,0,0,0,.08s0,0,0,0a.09.09,0,0,0,0-.05h0l0,0,.08,0,0,.09,0,0v0a.08.08,0,0,0,0,.05l0,.12,0,0h0l0,.09h-.05l0,0-.1.29,0,0h-.08a.1.1,0,0,0,0,0v0l0,0,.07,0c0,.12-.09.24-.14.37l-.15.38c0,.13-.09.26-.13.39a2.24,2.24,0,0,0-.07.39.46.46,0,0,0,0,.07s0,0,0,.07l0,0h-.07l0,.05,0,0h0l0,0A.92.92,0,0,1,230.51,198.56Zm.06-1.21s0,0,0,0v0h0v.05S230.57,197.35,230.58,197.35Zm.2-1.11h0l0,0h0Zm0-.35h0a0,0,0,0,0,0,0h.11V196a.45.45,0,0,0,0,.08.19.19,0,0,0,0,.07,0,0,0,0,0,0,0H231l.06,0a.1.1,0,0,1-.09-.07.06.06,0,0,1,0-.05v-.09a0,0,0,0,0,0,0l0,0,0,0s0,0,0,0l0,0v0a0,0,0,0,0,0,0,0,0,0,0,0,0,0h.05v0h-.06l0,0v0a0,0,0,0,1,0,0v0Zm0,0h0v0Zm0,.17h0l0,0h0Zm0,.79h0Zm.1-.59,0,0s0,0,0,0Zm0,.7a0,0,0,0,1,0,0s0,0,0,0v0h0S231,197,231,197Zm0-1.07h0Zm.1.06,0,0s0,0,0,0l.05.06Zm0-.17,0,0h.05s0,0,0,0l0,0h-.05S231,195.8,231,195.8Zm0,.47h0v0h0Zm0-.34h0a0,0,0,0,0,0,0h0A0,0,0,0,0,231.09,195.93Zm0,.23h0s0,0,0,0h0Zm0-.36h0l0,0h0Zm0-.11h0l0,0h0Zm.93,1.6a1.25,1.25,0,0,0,0-.14l-.06-.31-.07-.41-.08-.41-.06-.33,0-.16q-.13.43-.29.86t-.3.86h.3l.15,0,.05,0,.21,0h0a.31.31,0,0,1,.15.05A.08.08,0,0,0,232.08,197.29Zm-.9-1.38s0,0,0,0v0h0a0,0,0,0,0,0,0s0,0,0,0h0l0,0h0s0,0,0,0h0l0,0,0,0h0v-.05Zm0,.21h0v0h.05Zm.05,1.36h0l0,0h0Zm.12-1.76v0s0,0,0,0h0v0l0,.06,0-.06Zm0,.5h0l0,0h0Zm.17-1.05h0a0,0,0,0,0,0,0h0A0,0,0,0,0,231.58,195.16Zm.18.13h0l0,0h0Zm0-.11s0,0,0,0v0h0v.05S231.77,195.19,231.78,195.19Zm0-.14h0l0,0h0Zm.09-.06v0s0,0,0,0h0l0,.08Zm.27,2.58,0,0h0a.21.21,0,0,0,0,0,0,0,0,0,0,0,0h0l0,0a0,0,0,0,0,0,0v0a0,0,0,0,0,0,0,.08.08,0,0,0,0,0Zm.21.21h0s0,0,0,0l0-.05v0s0,0,0,0,0,0,0,0v0a.3.3,0,0,0,0,0s0,0,0,0l0,0a.12.12,0,0,1,0-.07s0,0-.06,0v-.05a0,0,0,0,0,0,0s0,0,0,0h0l0,0s0,0,0,0a.15.15,0,0,1,.07.07.07.07,0,0,1,0,0,0,0,0,0,0,0,0v0l.05,0,0,.06Zm0-.62,0,0a0,0,0,0,0,0,0h0Zm0,.48h0s0,0,0,0S232.34,197.64,232.33,197.64Zm0-.29h0s0,0,0,0a0,0,0,0,0,0,0h0Zm0,.32h0Zm0-.14h0l0,0h0Zm.06.23s0,0,0,0h0v0a.07.07,0,0,1,0,0h0A.31.31,0,0,0,232.46,197.75Zm.06,1.1h0l0,0h0s0,0,.06,0h-.08Zm0-.75,0,0,0,0h0A0,0,0,0,0,232.49,198.1Zm0,.3h0Zm0,.61,0,0,.05,0s0,0,0,0h0a0,0,0,0,0,0,0,0,0,0,0,0,0,0l0,0A.06.06,0,0,1,232.52,199Zm.06-.71h0a0,0,0,0,0,0,0h0A0,0,0,0,0,232.58,198.3Z"/><path class="cls-21" d="M238.24,195.59h0s0,.06,0,.06l-.12,0-.14,0-.18.17a.55.55,0,0,0-.1.14.64.64,0,0,0-.06.16,2.42,2.42,0,0,0,0,.25c0,.2,0,.41,0,.61l0,0a1.62,1.62,0,0,0,0,.26,1.21,1.21,0,0,0,0,.13c0,.13,0,.26,0,.39q-.05.52-.11,1c0,.34-.08.69-.11,1l-.2,0-.14,0a.23.23,0,0,1-.14-.05,4.1,4.1,0,0,1-.18-.39l-.32-.7-.4-.85-.39-.83-.32-.65a2.07,2.07,0,0,0-.18-.31q0,.37-.06.74l-.05.54q-.08.63-.14,1.27a2.32,2.32,0,0,0,0,.26.33.33,0,0,0,.09.23v.08l.09,0,.08.07.11.07.09.06,0,0q0,.12-.1.13h-.28l-.05-.07-.08,0-.11-.05-.1,0-.06,0h-.14l-.16,0-.17,0h-.19l-.1,0a.08.08,0,0,1-.05-.08.13.13,0,0,1,0-.07s0-.06,0-.07a.37.37,0,0,1,.15,0,.27.27,0,0,0,.14,0l0-.06a.42.42,0,0,0,.2-.25,1.84,1.84,0,0,0,.06-.32l.3-3.12a1.21,1.21,0,0,0,0-.16.72.72,0,0,0,0-.15.23.23,0,0,0-.07-.12,2.34,2.34,0,0,1,.48,0l.53.07.06,0a2,2,0,0,0,.11.27,2.73,2.73,0,0,1,.12.27h.06l.13.3a1.09,1.09,0,0,1,.09.3l0,0v.05l.06,0a2.41,2.41,0,0,0,.16.43l.21.42.21.43a3.94,3.94,0,0,1,.18.43.21.21,0,0,0,0-.13.84.84,0,0,0,0-.18.88.88,0,0,1,0-.19,4.71,4.71,0,0,1,.09-.53,4.48,4.48,0,0,0,.08-.51v-.06a1.81,1.81,0,0,0,0-.53.73.73,0,0,0-.27-.42l-.17-.05a.12.12,0,0,1,0-.06.27.27,0,0,1,0-.06c0-.05,0-.08,0-.09h.11l.16.05.17.09.16.08.12,0,.11,0,.18,0,.21,0h.2l.06,0a.1.1,0,0,1,.05,0S238.24,195.53,238.24,195.59Zm-3.77,3.59h0Zm0-1.32h0Zm.19,1.35h0a0,0,0,0,0,0,0,0,0,0,0,0,0,0v0Zm.05-3.41s0,0,0,0h.08l0-.11A.29.29,0,0,1,234.71,195.8Zm.42-.18a0,0,0,0,0,0,0v.05H235l0,0s0,0,0,0Zm2,3.54v0a.17.17,0,0,0,0-.1l-.07-.14h0a0,0,0,0,0,0,0c.05,0,.08,0,.09-.06a.22.22,0,0,1,0-.1l-.06,0v0l.08,0a.1.1,0,0,0,.06,0,0,0,0,0,0,0,0l0,0a.07.07,0,0,0-.08,0h0a.12.12,0,0,1,0,0,.06.06,0,0,1,0,0h0s0,0,0,0l0,0h0l0,.05a.09.09,0,0,0,0,0l0,0-.07,0,0-.08h0l-.16-.32v0h0l-.4-.85v0h0l-.92-2,0,0h0l1.35,2.86h0l.06.13h0l0,0h0s0,0,0,0h0l.07.15a.08.08,0,0,0-.1.08l.05.05a.12.12,0,0,1,0,.07v0l-.09,0s0,0,0,.08h0s0,0,0,0h0a0,0,0,0,0,.05,0,.05.05,0,0,1,.05,0,.1.1,0,0,1,.06,0h0l0,.07,0,.07,0,0h.1v0h0v0l0,.05,0,0h0a.07.07,0,0,0,0,.08h0l0,0v-.06l0,0,0,.21,0,0,0,0,0,.05,0,0h0l0,0,0-.43,0,0Zm-1.47-2.08a0,0,0,0,0,0,0l0,0h0Zm0-.24h0v0l.05,0Zm.5.67,0,0a0,0,0,0,0,0,0h.07Zm-.07.53a.06.06,0,0,0,0,0v0h.06l0,0h-.05a0,0,0,0,0,0,0l0,0Zm.08.21v0s0,0,0,0l0,0A.07.07,0,0,0,236.23,198.25Zm0-.32h0l0,0Zm0-.22h0Zm0-.11h0l0,0h0Zm0-.09h0l0,0Zm0,.49h0a.09.09,0,0,0,0,0l0,0v0h.09v0h0l0,0,0,0s0,0,0,0v0Zm.08.67h0s0,0,0,0Zm0-.92a0,0,0,0,0,0,0v-.05l0,0a0,0,0,0,0,0,0v.05A0,0,0,0,0,236.46,197.74Zm0,.11h0l0,0h0S236.43,197.85,236.44,197.85Zm.19,1a.07.07,0,0,0,0-.07.16.16,0,0,0,0-.12l0,0v0a.16.16,0,0,0,0-.05.07.07,0,0,0,0,0,.58.58,0,0,0,0,.12.11.11,0,0,0,.06.12.13.13,0,0,1,0-.05,0,0,0,0,1,0,0l0,0v0l0,0h0v0a.1.1,0,0,0,0,0,0,0,0,0,0,0,0s0,0,0,0h0S236.63,198.89,236.63,198.86Zm-.13-.8h0a0,0,0,0,0,0,0h0A0,0,0,0,0,236.5,198.05Zm0,.33h0v0h0l0,0Zm.06.51h0a0,0,0,0,1,0,0,.09.09,0,0,1,0,0l0,0h0Zm0-.84s0,0,0,0h0S236.59,198.07,236.59,198.06Zm0,1.13h0l0,0h0Zm0-.57h.06s0,0,0,0v.05h0v0a.05.05,0,0,0,0,0l0,0A0,0,0,0,0,236.58,198.62Zm0-.37,0,0h0l0,0h.07Zm.05.25a.05.05,0,0,0,0,0s0,0,0,0h0l.08,0v0Zm-.06-.35h0l0,0h0Zm0-.37h0l0,0h0Zm0,1.34,0,0h0v-.05h0v0a0,0,0,0,0,0-.05l0,0h0a.07.07,0,0,0,.05.08Zm.1.32h0l.07,0h0s0,0,0,0a0,0,0,0,0,0,0l0,0v-.05h0l0,0,0,0,0,0h0s0,0,0,0l.05,0s0,0,0,0l0,0h0l.09,0v0Zm-.09-1.59h0Zm0,.8a0,0,0,0,0,0,0s0,0,0,0h-.05Zm.08-.32a0,0,0,0,0,0,0h0v0s0,0,0,0h0Zm.21,1.34h0a.12.12,0,0,0,0-.07l0-.06h0v.07a.07.07,0,0,1,0-.07.18.18,0,0,0,0,0l0,0,0,0a.18.18,0,0,0,0,0,.15.15,0,0,0,0,.11,0,0,0,0,0,0,.05s0,0,0,0v0Zm-.1,0h0S236.85,199.64,236.86,199.65Zm0-1.29a0,0,0,0,0,0,0h0v0a0,0,0,0,0,0,0h0Zm0-.12h0l0,0h0Zm0,.66v0Zm0,.47s0,0,0,0h-.06Zm.11-1a.1.1,0,0,0-.08,0l-.06.06H237v0l-.11.07s0,0,0,0h0l0,.06a0,0,0,0,0,0,0s0,0,0,0a.06.06,0,0,1,.07,0h.05s0,0,0,0l0,0a0,0,0,0,1,0,0h0l.09,0,0,0v0s0,0,0,0h0v0h0a0,0,0,0,0,0,0s0,0,0,0l0,0-.08,0a.21.21,0,0,0,0,0,.28.28,0,0,1,0,.07.48.48,0,0,1,0,.06s0,0,0,0a.05.05,0,0,1,0,0v-.06h0S237,198.34,237,198.33Zm-.1.61H237s0,0,0,0h-.11a0,0,0,0,1,0,0Zm0,0h0s0,0,0,0S236.91,198.91,236.9,198.91Zm0,.22a0,0,0,0,0,0,0,0,0,0,0,0,0,0v.05Zm0,.34s0,0,0,0,0,0,0,0Zm0,.16s0,0,0,0h0a0,0,0,0,1,0,0h0Zm.09-.73,0,0a.09.09,0,0,1-.06,0v0h0l0,0,0,0h0v0a.21.21,0,0,0,0-.09l0,.09Zm-.07-.21h0v0Zm0,0h0v0S236.95,198.74,237,198.73Zm0,.36,0,0h0Zm0-.72v0l0,0Zm0,.58a.06.06,0,0,1,0,0v.1H237a0,0,0,0,0,0,0v0a.12.12,0,0,1,0,0,.17.17,0,0,1,0-.05Zm0-.72a0,0,0,0,0,0,0v0l0,.08h0Zm0,.89v0Zm0-.31a0,0,0,0,0,0,0v0s0,0,0,.05Zm0-.16h0v0s0,0,0,0a0,0,0,0,0,0,0S237.14,198.65,237.14,198.64Zm0,.28h0l0,0h0Zm0-.58h0l0,0S237.14,198.36,237.14,198.34Zm0-.29h0l0,0h0Zm0,.3h0v0h0S237.19,198.35,237.18,198.35Zm0-.22h.05s0,0,0,0A0,0,0,0,0,237.22,198.13Zm.05.59a0,0,0,0,0,0,0,0,0,0,0,0,0,0v.05Zm.12-2.42h0l0,0h0Zm0-.36h0l0,0h0Zm.05-.07v0h0v0h0A.08.08,0,0,0,237.5,195.87Z"/><path class="cls-21" d="M242.06,196.9s0,0-.08,0h-.1a.08.08,0,0,1-.07,0,.22.22,0,0,1,0-.09.64.64,0,0,0,0-.11.23.23,0,0,0-.06-.12,1.15,1.15,0,0,0-.19-.18.63.63,0,0,0-.18-.09l-.21,0-.36,0h-.1a2.76,2.76,0,0,1,0,.28q0,.24-.05.58t-.07.72q0,.39-.08.72l-.07.56,0,.26a1.51,1.51,0,0,0,0,.27.4.4,0,0,0,0,.15.53.53,0,0,0,.1.13,1.54,1.54,0,0,1,.17.2l.07,0h.09a0,0,0,0,1,0,0v.14a.1.1,0,0,1-.09.05h-.12a1.15,1.15,0,0,1-.25-.06l-.25-.1-.2-.1-.1,0-.07.08-.2,0-.2,0h-.1l-.1,0-.09,0H239l-.1,0s0,0,0-.08a.61.61,0,0,1,0-.09.06.06,0,0,1,0,0l.09,0h.1l.08,0,.07-.05.08,0s.07-.09.11-.21a4.39,4.39,0,0,0,.09-.45q0-.26.08-.57l.06-.57q0-.27,0-.48l0-.26.1-1.11-.12,0-.34,0a1.28,1.28,0,0,0-.33,0,.61.61,0,0,0-.27.12.52.52,0,0,0-.17.29l-.07,0h-.09c-.07,0-.1,0-.09-.11a.47.47,0,0,0,.05-.18.67.67,0,0,1,0-.17.91.91,0,0,1,.12-.21.43.43,0,0,0,.09-.21,1.1,1.1,0,0,0,0-.12s0-.09,0-.13a.3.3,0,0,1,0-.11.23.23,0,0,1,.09-.09h0v0a.17.17,0,0,0,0,.08.36.36,0,0,0,.06.09l.08.09.07.08a.45.45,0,0,0,.17,0l.88.1.88.1.25,0,.12,0h.19a.56.56,0,0,0,.25-.06.26.26,0,0,0,.13-.22h0a.49.49,0,0,1,.07.15.41.41,0,0,1,0,.16.26.26,0,0,1-.08.18.22.22,0,0,0,0,.11.29.29,0,0,1,.05.1.63.63,0,0,1,0,.25.57.57,0,0,0,.05.25l0,0A.17.17,0,0,0,242.06,196.9Zm-2.42,2.34,0,0a0,0,0,0,0,0,0h.07Zm-.06.19s0,0,0,0a0,0,0,0,0,0,0h0l0,0-.06,0v-.05A0,0,0,0,0,239.58,199.43Zm.09-.33h0Zm0,.45s0,0,0,0h.05s0,0,0,0l0,0h-.05S239.7,199.55,239.69,199.55Zm0-1.29h0l0,0s0,0,0,0h0Zm0,1.47h0Zm.52.27,0,0h-.05v-.06a.41.41,0,0,1,0-.1l0-.1h0v0a.64.64,0,0,1,0-.12l0-.27,0,0h0l.07-.71h0v0l.18-1.84c0-.17,0-.32,0-.43v-.18l0,0h0l-.21,2.14,0,0h0l0,.3h0s0,0,0,0h0l0,.32,0,0h0v0h0s0,0,0,0h0l0,.51,0,0h0v.15a.5.5,0,0,0,0,.15l0,.06h-.06l-.15-.19,0,0a.07.07,0,0,0,0,0l0,0a0,0,0,0,0,0,0l-.1.08a.35.35,0,0,0-.09.09v.06h0l.06,0,.07-.05.07-.06,0,0,.08.12.1.11h.07S240.23,200,240.24,200Zm-.52-.52h.05a0,0,0,0,0,0,0h-.1Zm.06-1.67h0s0,0,0,0,0-.06,0-.07l0,0v0h0l0,.08Zm0-.25s0,0,0,.06,0,0,0,0l0,0v0h0l0,0,0-.05h0Zm0,.22h0a0,0,0,0,1,0,0S239.76,197.8,239.76,197.78Zm0-.2h0v0Zm0,1.05a.05.05,0,0,0,0,0,.09.09,0,0,0,0,0,0,0,0,0,0,0,0A.12.12,0,0,0,239.83,198.64Zm0-2.62h0l0,0h0Zm.17,1.81h0l0,0H240v0l0,0h0v0h0a0,0,0,0,0,0,0l0,0v.06l-.09,0V198h.06a.05.05,0,0,0,0,0H240s0,0,0-.05v-.05H240S240,197.82,240,197.82Zm0-.51s0,.05-.08.07h0s.06,0,.08,0a.07.07,0,0,0,0-.06A.07.07,0,0,1,240,197.31Zm-.06-1.18h0l0,0h0Zm.17,1.42s0,0,0,0h-.11l0,.05,0,0,.07,0,.06,0s0,0,0,0h0l0,0,0,0Zm-.15,1.92h0l0,0h0Zm0-1.21h0s0,0,0,0a0,0,0,0,0,0,0h0Zm0-2.24,0,0a.08.08,0,0,0,0,0s0,0,0,0h0v0l0,0Zm0,1.68a.12.12,0,0,0,.07,0h.08l-.08-.06Zm0-.28h0a0,0,0,0,0,0,0h0A0,0,0,0,0,240,197.42Zm0,1.14h0Zm.14-.72h0l0,0h0Zm0-.12h-.05a0,0,0,0,0,0,0Zm.1,1.33a0,0,0,0,0,0,0v0h0A0,0,0,0,0,240.31,199Zm0-.51h0Zm1-2.31h0l0,0h0Zm.4-.22v0s0,0,0,0,0,0,.05,0l0-.06h0l-.16-.08V196l-.08,0s0,0,0,0h0a.11.11,0,0,0,0,0,0,0,0,0,0,0,0s0,0,0,0v0h0v.11a.32.32,0,0,0,.07-.1A.41.41,0,0,1,241.72,196Zm-.18.09s0,0,0,0h0A0,0,0,0,1,241.54,196.09Zm.05-.05a.05.05,0,0,1,0,0v0s0,.05-.07.06Zm.16.06s0,0,0,0l0,0a.12.12,0,0,0,0,0,0,0,0,0,0,0,0,.08.08,0,0,0,0,0h.05Zm0-.09h0l0,0S241.75,196,241.75,196Zm.12-.06h0l0,0h0Z"/><path class="cls-21" d="M245.68,196.6c0,.07,0,.15,0,.23s0,.15,0,.21,0,.1,0,.11h-.08a.28.28,0,0,1-.15-.06,1.16,1.16,0,0,0-.24-.43.91.91,0,0,0-.33-.22,1.44,1.44,0,0,0-.38-.09h0l-.5,0a.11.11,0,0,0-.1,0,.29.29,0,0,0,0,.09.33.33,0,0,0,0,.08.07.07,0,0,0,0,0v.11q0,.34-.06.67c0,.22,0,.45-.06.68a.07.07,0,0,0,.06,0h.19l.13,0,.14,0a.51.51,0,0,0,.33,0,.53.53,0,0,0,.16-.17l.1-.18a.16.16,0,0,1,.14-.09l.14,0c0,.07,0,.14,0,.22a.91.91,0,0,1-.05.22l0,.08-.06.09-.05.09a.18.18,0,0,0,0,.06.36.36,0,0,0,0,.13l.05.18.05.21a.62.62,0,0,1,0,.19.18.18,0,0,1,0,.08.08.08,0,0,1-.08,0l-.09,0-.08,0a.23.23,0,0,1,0-.1.36.36,0,0,0,0-.1.52.52,0,0,0-.13-.24.54.54,0,0,0-.2-.12l-.24-.05-.26,0h-.2l-.06.39c0,.13,0,.26,0,.39a.43.43,0,0,0,0,.17l-.06.67a.78.78,0,0,1,0,.13v.05a.1.1,0,0,0,0,.08,1.15,1.15,0,0,0,.28.07,2.14,2.14,0,0,0,.53,0,1.29,1.29,0,0,0,.46-.16,1,1,0,0,0,.34-.32,1.12,1.12,0,0,0,.17-.52v-.11h0a.12.12,0,0,1,0-.09h.19a.41.41,0,0,1,0,.1c0,.26-.05.51-.08.76s-.06.51-.08.76a.16.16,0,0,0-.09,0h-.23l-.1,0-1.06-.09-1.07-.1-.19,0-.29,0-.26-.07c-.07,0-.11-.06-.11-.09s0-.06.07-.08l.16-.07.19-.09a.44.44,0,0,0,.17-.13,1,1,0,0,0,.07-.3c0-.1,0-.21,0-.32s0-.24,0-.4l.06-.52q0-.28.06-.57c0-.2,0-.38,0-.55s0-.32,0-.45a1.49,1.49,0,0,0,0-.28.35.35,0,0,0-.11-.21l-.17-.12-.15-.1a.14.14,0,0,1-.05-.14V196l0,0,1.59.16,1.59.14h.09l.09,0v.15l0,0A1,1,0,0,0,245.68,196.6Zm-3.44,3.77h0l0,0h0Zm.07.07h0l0,0h0S242.29,200.44,242.3,200.44Zm1-.57s0,0,.06,0h-.09l0-.16s0,0,0,0v0l0-.05v-.07a.16.16,0,0,1,0,.05s0,0,0,0h0v-.11h0l0,0,0,0,0-.25h.09l-.08-.05.25-2.58,0,0h0l-.24,2.5-.06,0v0s0,0,0,0h0l0,0,0,0h0l.06,0v.08l-.15.1h.07a.06.06,0,0,1,.05,0h0v0l-.07,0-.06,0h.12l0,.22-.06,0,0-.06h0a.1.1,0,0,0-.11.08l0,.06v0s0,0,0,0a.05.05,0,0,0,0,0,.5.5,0,0,0,0,.1h0a.08.08,0,0,1-.05.06h0a0,0,0,0,0,.05,0l0,0,0,0,0-.12,0,0h0l0,0h0v0h0l0,0a.19.19,0,0,0,0,.07.14.14,0,0,0,0,.07l0,.34,0,0h0v.13h0l0-.1v0h0a0,0,0,0,0,0,0h0l0,0v0a.12.12,0,0,1,0-.08l0,0h0s0,0,0,0h-.06v0l-.08,0a.09.09,0,0,1,0-.06h.09v-.06s0,0,0,0a0,0,0,0,0,0,0h.05v0h0l0,0h0a.11.11,0,0,0,0,0l-.06,0h-.12a0,0,0,0,0,0,0v0a.22.22,0,0,1,.11.06,0,0,0,0,1,0,0l0,0-.06.08h0s0,0,0,0v0h.11l0,.12,0,0h.08s0,0,0,0l-.07.08h0s.05,0,.06,0h0a.06.06,0,0,1,0-.06.07.07,0,0,1,0,.05v0l0,0-.33,0v.05l0,0,.15,0,0,0,0,0,.18,0,0,0,0,0h0l.06,0,0-.19h0a.06.06,0,0,1,0,0h0a.26.26,0,0,1,0-.05h0V200h.07l.05-.06Zm-.6-.5v0l0,.1h0a.12.12,0,0,0,.09,0,.4.4,0,0,0,.1.12v0h-.07a0,0,0,0,1,0,0,.08.08,0,0,1,0,0h0l0,0a.08.08,0,0,0,0,.08s0,0,.06-.05l.06,0h0s0,0,0,0h0v0l-.06,0h0a0,0,0,0,0,0,0l0,0A.3.3,0,0,1,242.66,199.37Zm.06.42v0h0v0h0Zm.05.2a0,0,0,0,1,0,0,.15.15,0,0,1,0,.06.13.13,0,0,1,0-.11v0Zm0,.35a.06.06,0,0,0,.06,0,0,0,0,0,0,0,0,0,0,0,0,0,0,0v.05Zm.06-1,0,0h0s0,0,0,0h.05Zm0-.1v0a.05.05,0,0,0,0,0s0,0,0,0h0l.08,0Zm-.07-.74h0l0,0h0Zm0,1.59a0,0,0,0,1,0,0h0a0,0,0,0,1,0,0Zm0-1.52h0Zm0,1.43,0,0,0,0h0v0Zm0-.92s0,0,0,0v0h0v.05S242.88,199.11,242.89,199.11Zm.07.16s0,0,0,0l0,0h0Zm.15.36a.09.09,0,0,0,.06-.05v.08A.08.08,0,0,0,243.1,199.63Zm.05-.14a0,0,0,0,1,0,0h.05A0,0,0,0,1,243.15,199.49Zm0-.16,0,0h0l0,0h0Zm0-.22h0v0Zm.11.35h0v0Zm0,0h0s0,0,0,0Zm1-1.19h0a0,0,0,0,0,0,0h0A0,0,0,0,0,244.32,198.3Zm.1.06h0l0,0h0Zm.53,2.27H245l0,0v-.1l0,0h0v.05l0,0h-.05v.05Z"/><path class="cls-21" d="M249.68,199.59a2.14,2.14,0,0,1-.49.77,1.42,1.42,0,0,1-.34.26,1.76,1.76,0,0,0-.33.24h-.11l0,.06-.44.07a2.59,2.59,0,0,1-.44,0l-.21,0-.24-.05-.22-.08a.47.47,0,0,1-.16-.12,2.38,2.38,0,0,1-.42.13,1.53,1.53,0,0,1-.44,0l-.11,0a.15.15,0,0,1-.09-.05v-.14l0,0,0,0a.51.51,0,0,0,.2,0,.46.46,0,0,0,.18-.1l.09-.1a.25.25,0,0,0,0-.08.51.51,0,0,0,0-.09s0-.08,0-.13q.09-.71.16-1.41l.13-1.41a.66.66,0,0,0-.05-.4.62.62,0,0,0-.18-.2l-.19-.11a.13.13,0,0,1-.08-.14v-.06a.54.54,0,0,1,.19,0l.21,0,.23.05.21.09a.42.42,0,0,1,.15.13l.08,0,.2-.07.31-.06a1.93,1.93,0,0,1,.39,0l.3,0,.3.07.05.06h.08l.05.05h.08l0,.06a1.3,1.3,0,0,1,.39.3l0,.06h.05v.05h.06l0,.09a1.21,1.21,0,0,1,.19.3,2.48,2.48,0,0,1,.14.39,2.36,2.36,0,0,1,.08.42,1.93,1.93,0,0,1,0,.38A3.51,3.51,0,0,1,249.68,199.59Zm-3.35,1.08a.35.35,0,0,0,0-.12c0-.05,0-.08-.08-.08s0,0,0,0l0,.06a.13.13,0,0,0,0,.1.11.11,0,0,0,.08.05S246.33,200.71,246.33,200.68Zm-.06,0,0,0h0l0,0,0,0Zm1.09-3.68v-.05h-.06l0,0a.9.9,0,0,0-.08.23,1.65,1.65,0,0,0,0,.21.22.22,0,0,0,0,.05c0,.09,0,.18,0,.26s0,.16,0,.22l0,0h0l0,.26,0,0a.42.42,0,0,1,0,.19l0,.34c0,.13,0,.28-.06.43s0,.31-.06.45,0,.15,0,.22,0,.14,0,.21a1.72,1.72,0,0,0,0,.32h0l0,0v0l0,0,0-.06,0-.06,0,0,0-.08a0,0,0,0,1-.06,0l-.06,0v0l0,0v0l0,0a0,0,0,0,1,0,0h0v0l0,0h-.05l0-.05,0,0h0s0,0,0,0a.22.22,0,0,1,0,0v0a.08.08,0,0,0-.07,0,.11.11,0,0,0,0,.06.21.21,0,0,1,0,.06l0,.06.08,0,.06.12h-.07s-.06,0-.06,0a0,0,0,0,0,0,0l0,0s0,0,0,0l0,0h0v0h0l0,0a.08.08,0,0,1-.09.07h-.09l0,.07a.1.1,0,0,0,.05.05l0-.06,0,0,0,0,0,0v.06h.09v0l0,0h0v.08l0-.12,0,0v.14a.35.35,0,0,0,0,.07,0,0,0,0,0,0,0h.08a.06.06,0,0,1,0,0H247l0-.06,0-.07h0l0,0v-.07l0,0h0a.41.41,0,0,1,0-.07l.29-3.05A.85.85,0,0,1,247.36,197Zm-.91,3.65h0l0,0h0Zm0-.5s0,0,0,0h0Zm0-.38h0Zm0,.44v0l0,0Zm0-.21h0l0,0h0Zm0-.33h0s0,0,0,0h0Zm0,.59h0a0,0,0,0,1,0,0h0Zm0-.06a0,0,0,0,1,0,0h0v.06h.05Zm0-.31h0Zm0,.46h0S246.58,200.28,246.58,200.29Zm0-.84a0,0,0,0,0,0,0s0,0,0,0h0s0,0,0,0,0,0,0,0v0a.15.15,0,0,0,0,0,0,0,0,0,0,0,0,.07.07,0,0,1,0,0,.15.15,0,0,1,0,.09h0Zm0,.2-.06,0,.06,0Zm0,.36s0,0,0,0a0,0,0,0,0,0,0l0,0h0Zm0,.41h0l0,0Zm0-.45s0,0,0,0l0,0s0,0,0,0l0,0v.05S246.64,200,246.65,200Zm.07.09h0v0h0a.08.08,0,0,0-.06,0Zm0-.35v0l0,0,0,0s0,0,0,0A.12.12,0,0,0,246.76,199.71Zm.06-.22a0,0,0,0,0,0,0h0A.07.07,0,0,0,246.82,199.49Zm0-2.09h0a0,0,0,0,0,0,0h0A0,0,0,0,0,246.78,197.4Zm0,.84a0,0,0,0,0,0,0h-.05A0,0,0,0,0,246.81,198.24Zm0,2.06h0s0,0,0,0a0,0,0,0,0,0,0v0Zm0-.62h0a0,0,0,0,0,0,0s0,0,0,0A0,0,0,0,0,246.82,199.67Zm0-2.83h0l0,0h0Zm0,3.64v0Zm.06,0a.23.23,0,0,1,0,.06v0l-.08-.06h0v0a.11.11,0,0,0,0-.08h0Zm0-.72h0s0,0,0,0v0h0Zm0-1.81a0,0,0,0,0,0,0,0,0,0,0,0,0,0h0v0A.07.07,0,0,0,247,197.93Zm.08,2.75h0s0,0,0,0h0A0,0,0,0,0,247,200.68Zm.16.12h0v-.06h-.05s0,0,0,0a.08.08,0,0,0,0-.07,0,0,0,0,0,0,0v.06h0l0,0v-.05l.06,0,0,.06.06,0Zm-.07-3.23h0l0,0s0,0,0,0A0,0,0,0,0,247.13,197.57Zm1.35,2.71a2.39,2.39,0,0,0,.24-.49,4,4,0,0,0,.16-.54,3.81,3.81,0,0,0,.07-.44,4.37,4.37,0,0,0,0-.62,2.8,2.8,0,0,0-.12-.68,1.54,1.54,0,0,0-.3-.56.79.79,0,0,0-.55-.27l-.22.11-.17.09a.35.35,0,0,0-.11.14.91.91,0,0,0-.06.28q-.05.57-.09,1.14t-.09,1.13c0,.09,0,.21,0,.34a.77.77,0,0,0,0,.1,1.61,1.61,0,0,0,0,.29.71.71,0,0,0,.1.32.38.38,0,0,0,.32.15h.16l.13,0,.12-.05.14,0v-.06A.68.68,0,0,0,248.48,200.28Zm.1.24h0l0,0h0Zm.06-.06h0v0h0Zm1-1.55a2.41,2.41,0,0,0,0-.57h0l0,0a1.75,1.75,0,0,0-.17-.53,3.48,3.48,0,0,0-.3-.47l.17.28a2.06,2.06,0,0,1,.13.27,1.91,1.91,0,0,1,.09.29,1.68,1.68,0,0,1,0,.33h0v.06h0s0,.09,0,.13,0,.08,0,.13a2,2,0,0,1-.06.29c0,.14-.09.28-.14.43a3.25,3.25,0,0,1-.18.39c-.06.11-.12.17-.18.17v0l-.09.09-.09.1,0,0h0l0,0h.06A2.26,2.26,0,0,0,249.68,198.91Zm-.86-1.72v0l0,0h0ZM249,200s0,0,0,0h0Zm.07-2.91h0Zm0,2.88h0a0,0,0,0,0,0,0h0A0,0,0,0,0,249.1,200Zm.1-1.17h0l0,0h0l0,0h0v0l-.06,0h0Zm.2,0h0l0,0h0S249.38,198.77,249.39,198.77Zm0-.07s0,0,0,0a.1.1,0,0,0,.05.05h0a.19.19,0,0,0,0,0s0,0,0,0l0,0h-.05S249.4,198.7,249.42,198.7Zm.05.1s0,0,0,0h0S249.47,198.81,249.47,198.79Z"/><path class="cls-22" d="M224.84,220s-1.18-7.25.29-10a11.08,11.08,0,0,1,1.27-1.9c.06-.08.2,0,.27-.12s.06-.26.13-.33a7.29,7.29,0,0,1,2.73-2c.56-.1,3.76-2.41,5.7-2.36.72,0,4.25,2.19,4.56,2.3a17.08,17.08,0,0,1,3,1.74c1.23,1.3,1.78,1.62,2.12,1.66a.38.38,0,0,1,.25.15,21.79,21.79,0,0,1,1.67,2.45,9.07,9.07,0,0,1,.26,1.36,1.57,1.57,0,0,1,.56,1.11,10,10,0,0,1-.62,3,3.71,3.71,0,0,1-.75.79s-.56,2.89-1.32,3.41-3.35,2.07-3.52,2.13c-.15.34-1.91,9.29-1.91,9.29l-1.77.81-1-.46,1-8.52s-3.29.26-3.72.22-2.89-.6-2.89-.6l.27,8.72-1.2.16-1.6-.91-.92-9.69A20.43,20.43,0,0,1,224.84,220Z"/><path class="cls-23" d="M227.11,214.39l-.16,1.56a11,11,0,0,0,2.14,1.81c.64.24,2.44.78,3,.3a3.83,3.83,0,0,0,1.16-1.75c.14-.62.32-1.27-.18-1.32S227.84,214.54,227.11,214.39Z"/><path class="cls-23" d="M236.14,215.29s.71,2.39,1.62,2.72a6.72,6.72,0,0,0,4.09-.42,5.54,5.54,0,0,0,1.66-1.28s.16-1.2-.12-1.19S237.43,215.42,236.14,215.29Z"/><path class="cls-23" d="M232.23,221.85l-.42.61a11.54,11.54,0,0,0,2.23,1.68,12.21,12.21,0,0,0,2.61-1.35l-.62-.85-1.84,1Z"/><path class="cls-24" d="M227.65,222.39l.92,9.69,1.6.91-.83-13.38s-.75-.43-1.71-.91a8.15,8.15,0,0,1-2.1-2.31s-1.11-.57-1.12-.87.27,4.31.43,4.51A17.89,17.89,0,0,0,227.65,222.39Z"/><path class="cls-25" d="M238.41,219.45l1,.85s3-.44,3.85-1.13a14.74,14.74,0,0,0,1.72-1.86l-.6-.34s-2,1.82-3.19,2S238.41,219.45,238.41,219.45Z"/><path class="cls-25" d="M225.53,216.4s1.08,2.15,1.91,2.51,1.9.7,1.9.7l1.07-.48a12.9,12.9,0,0,1-3.22-1.28C226.47,217.24,225.53,216.4,225.53,216.4Z"/><path class="cls-25" d="M226.27,208.92s-.83,2-.49,2.7a5.22,5.22,0,0,0,1.77,1.47s-1.61-1.4-1.51-2S226.27,208.92,226.27,208.92Z"/><path class="cls-25" d="M234.8,213.12a13.89,13.89,0,0,1,2.48-1.95c.61-.18,2.78-.88,2.78-.88S236,212.7,234.8,213.12Z"/><path class="cls-25" d="M233.75,213.3s-4.25-3.07-5.57-3.38-1.45-.73-1.41-1.23.51-.13.51-.13S233.4,211.51,233.75,213.3Z"/><polygon class="cls-25" points="236.04 221.93 235.42 215.22 236.19 217.46 236.66 222.78 236.04 221.93"/><polygon class="cls-25" points="232.23 221.85 231.81 222.45 233.58 215.04 232.23 221.85"/><path class="cls-23" d="M234.82,204.3s-.38,8.21-.46,9.07C234.7,212.44,235.23,205.75,234.82,204.3Z"/><path class="cls-25" d="M225.8,213.71s.63-.58.93-.55c-.73-.15-.87-.09-.87-.09Z"/><path class="cls-25" d="M244.69,214.39s.21,1.62,0,1.66a5.71,5.71,0,0,1-.74,0s-.09-1,.1-1S244.69,214.39,244.69,214.39Z"/><polygon class="cls-25" points="237.71 224.5 238.41 219.45 239.38 220.3 237.75 233.47 236.74 233.02 237.71 224.5"/><path class="cls-23" d="M235.46,214.81l5.54.41-2.5.18-2.35-.11s1,2.59,1.62,2.72,3.43.45,5.22-1.18c-.13.49-2.77,2.29-4.63,1.85S236.32,217.8,235.46,214.81Z"/><path class="cls-25" d="M229.07,213.68s2.58.58,3.17.67,1.42.17,1.33.69S233,215,233,215,229.5,214.31,229.07,213.68Z"/><path class="cls-26" d="M233.6,214.87s1.2.35,1.73,0c.14.83.72,7.06.72,7.06l-1.84,1-2-1.1Z"/><path class="cls-26" d="M235.11,213.44a29.35,29.35,0,0,0,4.39-1.18,4.52,4.52,0,0,1,1.6-.79c.22.05,1,.13,1.29-.16s.56-.65-.47-.63S235.66,212.68,235.11,213.44Z"/><path class="cls-26" d="M233.75,213.3s.07.43-1.56-.63a16.46,16.46,0,0,0-2.51-1.51c-.28-.09-2.07-.78-1.2-1.14A48.69,48.69,0,0,1,233.75,213.3Z"/><path class="cls-21" d="M228.88,238.28a2.34,2.34,0,0,1,.33.31,1.45,1.45,0,0,1,.23.37.8.8,0,0,1,.06.41,1.53,1.53,0,0,1,0,.18l0,.18h0v0a.76.76,0,0,1-.11.14l-.12.09-.13.07-.15.08a.69.69,0,0,1-.23,0h-.23v.2H228a.88.88,0,0,0,0-.11l0-.12-.1-.06-.12-.06-.12-.05-.1,0a.17.17,0,0,0-.15.07l0,.08a.13.13,0,0,1,0,.07l-.13,0,0-.1a.89.89,0,0,1,0-.13.64.64,0,0,1,.06-.12.14.14,0,0,1,.08-.07.77.77,0,0,1-.05-.19,1,1,0,0,1,0-.15s0-.09,0-.14a.65.65,0,0,0,0-.17l.15,0h.05a1.3,1.3,0,0,0,0,.26,1.11,1.11,0,0,0,.1.26,1,1,0,0,0,.16.22.64.64,0,0,0,.22.15l.07,0,.07,0,.18,0,.21,0a.47.47,0,0,0,.18-.1.34.34,0,0,0,.09-.22.52.52,0,0,0,0-.26.78.78,0,0,0-.13-.21,1.48,1.48,0,0,0-.19-.18l-.2-.15v0l-.12-.08-.12-.09v0a.63.63,0,0,1-.17-.1l-.14-.15a1,1,0,0,1-.11-.18,1.13,1.13,0,0,1-.07-.19.51.51,0,0,1,0-.2h0v0a.62.62,0,0,0,0-.19.72.72,0,0,1,.14-.3.68.68,0,0,1,.19-.15l.21-.08a.63.63,0,0,0,.2-.09h.08l0-.19v0h.33a.25.25,0,0,1,0,.06.37.37,0,0,1,0,.06.33.33,0,0,1,0,.1l0,0,.1,0,.1,0,.06,0,0,0,.11,0,.11,0a.11.11,0,0,0,.08,0l.07-.05a.19.19,0,0,0,0-.06.1.1,0,0,1,0-.05h.15a1.32,1.32,0,0,1-.06.22.34.34,0,0,1,0,.09l-.05,0a.23.23,0,0,0-.06.1.63.63,0,0,0,0,.14,1.64,1.64,0,0,1,0,.18.46.46,0,0,1-.07.15.13.13,0,0,1-.13.05s0,0,0,0a.24.24,0,0,1,0-.06,1.88,1.88,0,0,0,0-.26.58.58,0,0,0-.06-.25l0,0v-.05l-.08-.05-.07-.08h-.06l-.08-.06h0l-.06,0h-.14l-.14,0a.38.38,0,0,0-.12.09.29.29,0,0,0-.07.12v.05a.35.35,0,0,0,0,.08.26.26,0,0,0,0,.1.47.47,0,0,0,.07.15.62.62,0,0,0,.12.12l.12.11,0,0,0,0A2.9,2.9,0,0,1,228.88,238.28Zm-1.32,1.12h0Zm0,.07h0l0,0Zm0,.25h0Zm0-.19h0s0,0,0,0h0S227.58,239.53,227.59,239.53Zm.08.24h0l0,0h-.05l0,0h0Zm0,.06h0l0,0Zm0-.14h0l0,0Zm.16-2h0S227.81,237.73,227.82,237.73Zm0-.07h0l0,0Zm.05,2.29h0Zm0-2.28h0Zm0,.6h0s0,0,0,0Zm0,0h0l0,0Zm0-.06h0Zm0,.08h0Zm0,0h0Zm0-.37h0l0,0Zm0-.14h0l0,0Zm0,.58h0l0,0Zm0-.34h0l0,0Zm0-.15h0l0,0Zm0-.1h0a.43.43,0,0,0,0,.1l.06.09h0l0,0h0l0,0,0-.06a.17.17,0,0,1,0-.07h0l0,0v0h0a.62.62,0,0,1,0-.33l0,0h0A.57.57,0,0,0,228,237.69Zm0,.14h0Zm0,.22h0Zm0,0h0Zm.67.76a1.34,1.34,0,0,1,.28.26,1.19,1.19,0,0,0-.27-.27l-.3-.22v0l0,0h0a0,0,0,0,0,0,0h0l0,0v0h0v-.07h0a.28.28,0,0,0,0,.08v0a.07.07,0,0,1,0,0l-.11-.08s0,0,0,0a.05.05,0,0,0,0,0h0a0,0,0,0,0,0,0v0l0,0v0a0,0,0,0,0,0,0h0v0h0l0,0,0,0h0l-.07-.06.05.06.06.06h0l0,0,0,0,0,0,0,0,0,0h0l.05,0h-.05v0h0l0,0,0,0Zm-.63-.66v0h0v-.05h0Zm0-.1h0l0,0Zm0,0h0Zm0-.07h0l0,0h0Zm0-.08v0h0s0,0,0,0v0l0,0v0Zm0,.53h0l0,0Zm0,0h0v0Zm0-.35h0Zm0,.23h0Zm0-.06h0Zm0,.09h0Zm0,0h0Zm0,.26h0v0h0Zm0-.22h0Zm0,.06h0S228.35,238.39,228.34,238.39Zm0,.1h0Zm0,.09,0,0s0,0,0,0h0Zm0-.25h0v0l0,0v0h0a0,0,0,0,0,0,0v0l0,0Zm0-.1h0v0h.08v0a.05.05,0,0,0,0,0,0,0,0,0,0,0,0h0Zm0-.13h0Zm0,.36h0Zm0,.07v0h0Zm0-.07h0l0,0s0,0,0,0Zm0-.29h0Zm0,.15h0v0s0,0,0,0h0l0,0s0,0,0,0Zm0,.26h0A0,0,0,0,0,228.52,238.57Zm0-.06h0Zm0-.24h.06v-.05l0,0h0v0l0,0Zm0,.13h0l0,0Zm0,.1h0v0h0Zm0-.17h0Zm0,0s0,0,0,0h0l0,0h0l0,0,0,0s0,0,0,0h0Zm0,.16h0Zm0-.16h0Zm0,.13h0Zm.06-.09h0Zm.13.68h0Zm0-.2h0Zm0,.26h0Zm0,.07h0Zm0-.15v0h0A0,0,0,0,0,229,239Zm0,0h0s0,0,0,0h0A0,0,0,0,0,229,239.08Zm0,.06h0Zm0,0h0Zm0,.33h0Zm0-.43h0Zm0-.08h0A0,0,0,0,0,229.05,239Zm0,.13h0Zm0,.29h0Zm0,.52h0Zm0-.63h0Zm0-.24,0,0h.05l0,0v0h0l-.05,0h0S229.09,239.06,229.11,239.07Zm0,.74v0s0,0,0,0v0A.06.06,0,0,0,229.1,239.81Zm0-.17h0Zm0-.59h0Zm0,.32h0v0l0,0h0S229.16,239.36,229.17,239.36Zm0,.39h0Zm0-.73h0Zm0-.16a.74.74,0,0,1,.14.39h0s0,0,0,.06,0,0,0,.06a.85.85,0,0,1-.07.27.35.35,0,0,0,0,0s0,0,0,0l0,0a.28.28,0,0,1,0,0s0,0,0,0l0,0v.05h0l0,0h0a1.09,1.09,0,0,0,.07-.16.7.7,0,0,0,0-.16A.78.78,0,0,0,229.17,238.86Zm0,.7h0Zm0,.27h0S229.18,239.84,229.19,239.84Zm0-.44h0Zm0,.13h0s0,0,0,0Zm0-.32h0Zm0,.47v0h0Zm0-.17h0Zm0-.44h0Zm0,.24h0Zm0-.29h0A0,0,0,0,0,229.22,239Zm0,.84h0Zm0-.61h0Zm0-.08h0Zm0-.09h0Zm0,0h0v0h0A0,0,0,0,0,229.35,239.06Z"/><path class="cls-21" d="M231.4,238.25a1.22,1.22,0,0,1,.52.73,1.31,1.31,0,0,1,0,.47,1,1,0,0,1-.06.25.92.92,0,0,1-.09.18l-.12.15-.14.19a.17.17,0,0,0-.11.07l-.07,0,0,0-.14,0-.16,0h-.31l-.21-.05-.18-.08-.17-.1-.19-.09a.14.14,0,0,0-.09,0l0,.06,0,.06a.06.06,0,0,1,0,0l-.14,0,.06-.22a.43.43,0,0,1,.13-.18.81.81,0,0,1-.07-.31,2,2,0,0,1,0-.32s0,0,0,0h.12l0,0a.06.06,0,0,1,0,0,.33.33,0,0,0,0,.07,1.27,1.27,0,0,0,.07.28,1.14,1.14,0,0,0,.15.27,1,1,0,0,0,.21.21.58.58,0,0,0,.27.11.35.35,0,0,0,.19,0,.61.61,0,0,0,.16-.11.71.71,0,0,0,.13-.16l.09-.17v0a.16.16,0,0,0,0-.08,1.12,1.12,0,0,0,0-.15c0-.06,0-.11,0-.16v-.11s0-.1,0-.17a.27.27,0,0,0,0-.16.56.56,0,0,1,0-.1.34.34,0,0,0,0-.1l0,0a.28.28,0,0,0,0-.13.77.77,0,0,0-.08-.15.61.61,0,0,0-.11-.12.25.25,0,0,0-.12-.06.32.32,0,0,0-.19,0,.62.62,0,0,0-.17.12.86.86,0,0,0-.13.17.76.76,0,0,0-.07.18h-.06l-.16,0-.09,0H230l0-.13.08-.25.1-.31.11-.31.08-.24,0-.11v0a.29.29,0,0,1,0-.08s0-.1,0-.11a.43.43,0,0,1,.16,0l.42.07.42.08a.62.62,0,0,0,.24,0,.23.23,0,0,0,.15-.18.18.18,0,0,1,.08.19.28.28,0,0,1,0,.08.25.25,0,0,0,0,.08.28.28,0,0,0,0,.09l0,.15a1.43,1.43,0,0,1,0,.17.65.65,0,0,1,0,.17s0,0,0,0h-.06a.08.08,0,0,1-.05,0l0-.07,0-.09,0-.07v-.06l-.09-.08-.08,0-.08,0-.11,0-.33,0-.33,0a.1.1,0,0,0,0,.07l0,.09v0l0,.07-.05.14-.05.15,0,.09.24,0a.8.8,0,0,1,.24,0A1.1,1.1,0,0,1,231.4,238.25Zm-1.19.23h0Zm0,0h0Zm0,0,0,0a.06.06,0,0,0,0,0,0,0,0,0,1,0,0h0l0,0h0v0Zm0-.17h0l0,0h-.05Zm.06-.46,0,0h0v0l0,0Zm0,.41h0Zm0-.51h0Zm.07-.18h0Zm0,0h0Zm0,.54h0Zm.11-.81h0Zm0,.79h0Zm.28-.79h0Zm.37,2.6h0Zm.06-.26h0Zm.11.39.12-.14.11-.15a.33.33,0,0,0,.05-.11h0a.84.84,0,0,0,.07-.25.56.56,0,0,0,0-.06s0,0,0-.06v0h0v0h0v0h0l-.08-.25a.72.72,0,0,0-.14-.23l0,.07,0,.08h0l0,.08,0,.09h0l0,0a.12.12,0,0,1,0,.05h0v0h0v0h0v0h0v.08h0v.1h0a.46.46,0,0,1,0,.13.41.41,0,0,0,0,.12h0a.64.64,0,0,1-.09.15l-.11.14-.1.1,0,.06v0h0S231.42,240.17,231.46,240.14Zm0-1.57h0Zm0,1.35h0Zm0-2.35h0l0,0Zm0,1.28h0A0,0,0,0,0,231.44,238.85Zm0,.87h0Zm0-.37h0Zm0,.12h0Zm0-.24h0s0,0,0,0h0Zm0,.08v0h0v0s0,0,0,0,0,0,0,0l0,0h0S231.49,239.32,231.49,239.31Zm0,.58h0Zm0-.52s0,0,0,0l0,0v0h0Zm0-.17h0Zm0,.34h0A0,0,0,0,0,231.49,239.53Zm0-.42h0Zm0,.28h0Zm0,.12h0S231.54,239.51,231.54,239.5Zm0-.49h0Zm0,.69h0Zm0-.62h0A0,0,0,0,0,231.54,239.08Zm0,.36s0,0,0,0h0l0,0Zm0-.23,0,0h0l0,0v0l0,0h0s0,0,0,0v0h0a0,0,0,0,1,0,0s0,0,0,0h0Zm0-.07h0Zm0,.46h0v0h0v0Zm0-1h0Zm0,1.15h0Zm0-.78h0Zm0,.11h0Zm0,0h0s0,0,0,0h0l0,0h0l0,0Zm0,.59h0Zm0-.34h0s0,0,0,0h0Zm0,.12h0Zm0-.14v0h0A0,0,0,0,0,231.64,239.31Zm0,.1h0l0,0h0v0Zm0-1.94h0Zm0,1.54h0Zm0-1.52h0Zm0,1.52h0Zm0,.59h0Zm0-.33h0Zm0-.28h0a0,0,0,0,0,0,0h0Zm0,.52h0Zm0-.62h0Zm0,.51h0Zm0-.47h0Zm0-1.5h0Zm0,.17h0s0,0,0,0Zm0,1.5h0v0Zm0,.43h0Zm0,.09h0Zm0-.38h0Z"/><path class="cls-21" d="M235.12,239.13a1.39,1.39,0,0,1,0,.17c0,.06,0,.12,0,.17s0,.09,0,.12a1.44,1.44,0,0,1-.18.55,1.58,1.58,0,0,1-.37.44,1.46,1.46,0,0,1-.5.27,1.26,1.26,0,0,1-1.1-.18,1.65,1.65,0,0,1-.41-.41,1.77,1.77,0,0,1-.25-.52,1.38,1.38,0,0,1-.05-.56l0-.16c0-.07,0-.14,0-.21a1.47,1.47,0,0,1,.06-.2.36.36,0,0,1,.08-.14s0,0,0,0h0l0,0a.83.83,0,0,1,.19-.35,1.31,1.31,0,0,1,.33-.26,1.61,1.61,0,0,1,.4-.16,1.53,1.53,0,0,1,.4,0v0h.16l.14,0a1.4,1.4,0,0,1,.3.15,1.52,1.52,0,0,1,.26.22,1.78,1.78,0,0,1,.2.24l0,0,0,.06,0,0a1.76,1.76,0,0,0,.09.25,1.53,1.53,0,0,1,.09.28l0,0,0,0A.39.39,0,0,1,235.12,239.13Zm-2.76.14h0Zm0,.25h0Zm0-.39h0Zm0-.05h0Zm0,.09h0Zm0-.35h0Zm0,.57h0S232.41,239.38,232.41,239.37Zm.07-.36h0v0a0,0,0,0,0,0,0l0,.06-.06,0,0,0s0,0,0,0a.09.09,0,0,0,0,0Zm-.07.43h0Zm0-.49h0Zm0,.37h0Zm0-.55,0,0h0v0h0a0,0,0,0,1,0,0h.05v0h0l0,0h0v0l0,0v0h0v0h0s0,0,0,0a.15.15,0,0,1,0-.05h0s0,0,0,0,0,0,0,0,0,0,0,0h.05l0,0v0h-.05Zm0,.63h0Zm0-.17h0Zm0-.1h0Zm0-.18h0Zm0-.07h0Zm0-.14h0Zm.41,1.54a2.32,2.32,0,0,1-.11-.55,2.71,2.71,0,0,1,0-.55v-.1l0-.1h0l0-.08a.42.42,0,0,1,0-.08v0h0l0-.05h0v0h0v-.08h0v0h0l0-.13,0,0,0,0h0a0,0,0,0,0,0,0v0h0l0,0,0-.07,0,0h0l0,0H233l0-.06h0l0-.08,0-.08v0h0a.49.49,0,0,0-.1.16l-.08.17h0s0,0,0,0a0,0,0,0,1,0,0h0s0,0,0,0h0v0h0v0h-.06l0,0h-.05l.05,0-.07,0v0l-.06,0h0a0,0,0,0,0,0,0,0,0,0,0,1,0,0h0a.06.06,0,0,1,.05,0l0,0h0l0,0h-.05v0a.08.08,0,0,1,0,0,.05.05,0,0,1,0,0l0,0s0,0,0,0l0,0h0v0h.1l.09,0h0a.05.05,0,0,1,0,0l0,0,0,0v.05h0l0,0c0,.1,0,.2-.06.31v.07a2,2,0,0,0,0,.25h0c0,.1,0,.19,0,.29a2,2,0,0,0,0,.29.19.19,0,0,0,0,0l0,.07,0,.07,0,0,0,0h0l0,.07h0l0,0A0,0,0,0,0,232.88,240.3Zm-.37-.52h0Zm0-.72v0h0v0Zm0,.44h0Zm0-.93s0,0,0,0l0,0,0,0h0v.07h0s0,0,0,0Zm0,0h0Zm0,.28h0Zm0,.31h0Zm0,.12h0l0,0Zm0,.43h0Zm0-.46h0s0,0,0,0Zm0,.16h0Zm0-.52h0Zm0-.2h0Zm0,.66h0Zm0-.17h0Zm0-.82h0Zm0,.19h0Zm0,0h0Zm0,1.3h0Zm0,0h0Zm0-1.28h0Zm0-.15,0,0v0h0v0Zm0,1.52h0A0,0,0,0,0,232.65,239.87Zm0-1.1h0v0s0,0,0,0S232.67,238.77,232.68,238.77Zm0-.37h0Zm0,.2h0l0,0a.08.08,0,0,1,0,0l0,0Zm0-.15h0Zm0,.41h0Zm0-.34v0s0,0,0,0v0Zm0,.68h0Zm0-.46h0Zm0-.18s0,0,0,0h0v0h0S232.74,238.54,232.73,238.56Zm0-.21,0,0h0v0h-.07l0,0Zm0,.09h0Zm0-.15v0h0v0l0,0h0Zm0,.38h0v0h0Zm0-.45v0h0v0Zm0,.38h0s0,0,0,0h0Zm0,.16h0Zm0-.22h0Zm0,1.12s0,0,0,0l0,0v0h0Zm0-1h0Zm0-.16h0l0,0a.06.06,0,0,1,0,0h0Zm0,.24h0v0Zm0-.46h0Zm0,.41v0h0v0Zm0-.17h0Zm0,.09h0Zm0-.38h0Zm0,1.35h0Zm0-1.29s0,0,0,0h0a0,0,0,0,0,0,0Zm0,.25a0,0,0,0,1,0,0h0v0Zm0,.38v0h0v0h0Zm0-.35h0v0h0Zm0,.42h0Zm0-.8h0l0,0S232.87,238.18,232.87,238.17Zm0,.31h0v0Zm0,1.58h0Zm0-2h0Zm0,.82h0Zm0-.58h0l0,0s0,0,0,0h0v0a0,0,0,0,0,0,0l0,0A0,0,0,0,1,232.92,238.32Zm0,1.69h0Zm0-1.74h0Zm0,.45h0Zm0,.2h0Zm0-.22,0,0Zm0-.53h0S232.9,238.17,232.9,238.18Zm1,2.43a1.21,1.21,0,0,0,.29-.36,2.14,2.14,0,0,0,.19-.46,2.78,2.78,0,0,0,.09-.41,2.81,2.81,0,0,0,0-.35,2.07,2.07,0,0,0,0-.37,1.69,1.69,0,0,0-.11-.36,1.13,1.13,0,0,0-.19-.31.38.38,0,0,1-.12-.1.34.34,0,0,0-.16-.06.37.37,0,0,0-.21,0l-.19.09,0,0h0v0l-.07.06a.17.17,0,0,0,0,.08h0a.81.81,0,0,0-.1.18c0,.06-.07.13-.1.19a2.42,2.42,0,0,0-.09.31,2.19,2.19,0,0,0-.06.32,2,2,0,0,0,0,.25,2.39,2.39,0,0,0,0,.31,2.61,2.61,0,0,0,.07.33,1.57,1.57,0,0,0,.11.3.78.78,0,0,0,.17.23.46.46,0,0,0,.24.12A.47.47,0,0,0,233.91,240.61Zm-1-2.21h0Zm0,.44h0Zm.06-.34h0Zm0,1.78h0l0,0Zm.12-2h0Zm.09-.29h0l0,0Zm1,2.62h0l0,0Zm0-.28h0s0,0,0,0h0Zm0-2.25h0Zm0,2.61h0Zm.65-1.08v0h0v-.06a.28.28,0,0,0,0-.05l.06,0h0l0,0v0h0v0h0l0,0v0h0l0-.12,0,0h0l0-.13a1.1,1.1,0,0,0,0-.12H235l.06,0,0,0s0,0,0,0v0h0v0h0l0,0a0,0,0,0,1,0,0v0a0,0,0,0,0,0,0h0a.23.23,0,0,0,0,.06l0,.06h-.05v0h0l0,0h0l0-.05,0-.05h0l-.08-.14-.09-.13.08.13.07.14h0l0,.07h0s0,0,0,0h0l0,.11h0v.06l0,0v0l0,0v0h0s0,0,0,0h0v.05h0a.06.06,0,0,1-.05,0h0s0,0,0,0h0v0a0,0,0,0,1,0,0l0,0,.05,0v.07a.17.17,0,0,0,0,0,0,0,0,0,0,0,0l.05,0h.06v0h0a0,0,0,0,1,0,0,.14.14,0,0,1,0-.05h0a0,0,0,0,1,0,0h0v0l0,0a.08.08,0,0,1,0,0,.09.09,0,0,0,0,0h0v0h0s0,0,0,0l0,0v0h0l0,.07,0,0h0l0,0s0,0,0,0l0,0v0h0s0,0,0,0h0s0,0,0,0h0v-.06h.06v0h0v.05h0v0h-.06s0,0,0,.06h0a.07.07,0,0,1,0,0v0h0s0,0,0,0h.06a1.74,1.74,0,0,1-.08.34,1.21,1.21,0,0,1-.15.31l0,0,0,0v0a.12.12,0,0,0,0,0,.11.11,0,0,1,0,0h0s0,0,0,0v0h0l0,0h0v0l0,0,0,0h0l0,0h0v0h0l0,0h0s0,0,0,0h0l0,0h0l0,0h0a.07.07,0,0,0,0,0l0,0,0,0s0,0,0,0h0s0,0,0,0v0a.05.05,0,0,0,0,0v.06h0v0h0l0,0h0v0l-.05,0v0h0v0h0l.08-.06.07-.06h0l0,0,0,0,0,0h0v0l0,0h0v0a1.67,1.67,0,0,0,.15-.29,1.48,1.48,0,0,0,.09-.31h0v0h0Zm-.64.63h0Zm0,0h0Zm0-2.18h0Zm.06.07h0Zm0,2h0Zm0,.16h0S234.44,240.33,234.44,240.34Zm0-2.29h0l0,0Zm0,2.35h0Zm0-.29h0Zm0-.38h0Zm0,.2h0Zm.1.18h0v-.05l-.06,0h.06v0Zm0-.12,0,0h0l0,0Zm0,.14h0Zm0,.14h0Zm.14-.66h0l0,0h0v0h0l0,0h.07v0l0,0h.1l0,0,.06,0Zm-.11-1h0Zm0-.29h0Zm0,.06h0Zm0,1.65s0,0,0,0h0l0,0S234.62,240,234.62,240Zm0-1.41h0Zm0,.81h0Zm0-.68h0Zm0,.54h0Zm0,.25h0Zm0,.42h0Zm0-1.4h0Zm0,.13h0Zm0,.5h0Zm0-.19h0v0Zm0-.59h0Zm0-.06h0S234.64,238.35,234.64,238.36Zm0,1.82h0l0,.05Zm0-1.57h0Zm0,.44h0Zm0,.94h0Zm0-1.16h0Zm0-.3,0,0s0,0,0,0Zm0,.37h0Zm0-.22h0Zm0,1h0Zm0-.59s0,0,0,0l0,0v0h0Zm0-.09h0l0,0Zm0,.14h0v0h0Zm0,.84h0Zm0-.42a0,0,0,0,0,0,0v0s0,0,0,0l0,0v0s0,0,0,0l0,0Zm-.06.55h0Zm0-1.33h0Zm0,.61h0Zm0-.08h0Zm0-.61h0Zm0,1.19h0Zm0-.93h0Zm0-.16h0v0Zm0,.44h0Zm0,.2h0Zm0-.42h0Zm0,.94h0Zm0,0h0Zm0-.88h0v0Zm0-.08h0Zm0,.14h0Zm0-.25h0Zm0,.37h0l0,0,0,0v0Zm0,.11h0Zm0,.11h0Zm0,.1v0h0A0,0,0,0,0,234.79,239.55Zm0,.6h0Zm0-.74h0Zm0,.38h0Zm0,.41h0Zm0-1.06h0Zm0-.18h0v0Zm0,.15h0Zm0,.2v0h0S234.85,239.3,234.87,239.3Zm0-.72h0v0h0v0Zm0,.36a.08.08,0,0,0,0,0h0l0,0h0l0,0h0v.08h-.07l0,0,0,0A.09.09,0,0,0,234.86,238.94Zm0,.19v0h0Zm0-.46h0Zm0,.25v0Zm0,.58h0S234.89,239.49,234.89,239.5Zm0-.87h0Zm0,.78h0Zm0,0h0v0S234.92,239.43,234.92,239.42Zm0,.05h0v0Zm0-.58h0a0,0,0,0,0,0,0v.05h0s0,0,0,0h0v0Zm0-.09h0Zm0,1.06h0Zm0-.7h0Zm0,.1h0a0,0,0,0,0,0,0Zm0-.2h0Zm0,.13h0Zm0,.18h0Zm0,.13h0a0,0,0,0,0,0,0h0A0,0,0,0,0,235.06,239.5Zm0-.23h0Z"/><path class="cls-21" d="M238.19,239.39a1.37,1.37,0,0,1,0,.17c0,.06,0,.12,0,.17s0,.09,0,.12a1.58,1.58,0,0,1-.18.57,1.82,1.82,0,0,1-.37.48,1.63,1.63,0,0,1-.5.32,1.23,1.23,0,0,1-.57.08,1.15,1.15,0,0,1-.52-.18,1.51,1.51,0,0,1-.41-.39,1.73,1.73,0,0,1-.25-.51,1.38,1.38,0,0,1-.05-.56l0-.16c0-.07,0-.14,0-.21a1.5,1.5,0,0,1,.06-.2.39.39,0,0,1,.08-.14s0,0,0,0h0a.9.9,0,0,1,.19-.35,1.47,1.47,0,0,1,.33-.28,1.81,1.81,0,0,1,.4-.18,1.61,1.61,0,0,1,.4-.08v0H237l.14,0a1.29,1.29,0,0,1,.3.12,1.39,1.39,0,0,1,.26.19,1.47,1.47,0,0,1,.2.22l0,0,0,.05,0,0a1.59,1.59,0,0,0,.09.24,1.46,1.46,0,0,1,.09.27l0,0,0,0A.37.37,0,0,1,238.19,239.39Zm-2.76.35h0Zm0,.25h0Zm0-.39h0Zm0-.05h0Zm0,.08h0Zm0-.35h0Zm0,.57h0S235.49,239.86,235.49,239.85Zm.07-.36h0v0a0,0,0,0,0,0,0l0,.06-.06,0,0,0s0,0,0,0a.09.09,0,0,0,0,0Zm-.07.43h0Zm0-.49h0Zm0,.37h0Zm0-.55,0,0h0v0h0a0,0,0,0,1,0,0h.05v0h0l0,0h0v0l0,0v0h0v0h0s0,0,0,0a.16.16,0,0,1,0-.06h0s0,0,0,0,0,0,0,0,0,0,0,0h.05l0,0v0h-.05Zm0,.63h0Zm0-.17h0Zm0-.1h0Zm0-.18h0Zm0-.07h0Zm0-.14h0Zm.41,1.52a2.31,2.31,0,0,1-.11-.54,2.79,2.79,0,0,1,0-.55v-.1l0-.1h0l0-.09a.41.41,0,0,1,0-.08v0h0v-.05h0v0h0v-.08h0v0h0l0-.13,0,0,0,0h0a0,0,0,0,0,0,0v0h0l0,0,0-.07h0l0,0h-.08l0-.07h0l0-.08,0-.08v0h0a.56.56,0,0,0-.1.16l-.08.18h0s0,0,0,0a0,0,0,0,1,0,0h0s0,0,0,0h0v0h0v0h-.06l0,0h-.05l.05,0-.07,0v0l-.06,0h0a0,0,0,0,0,0,0s0,0,0,0v0a.06.06,0,0,1,.05,0l0,0h-.11v0a.08.08,0,0,1,0,0,.05.05,0,0,1,0,0l0,0s0,0,0,0l0,0h0v0h.1l.08,0h0a0,0,0,0,1,0,0l0,0,0,0v.05h0l0,0c0,.1,0,.21-.06.31v.07a2,2,0,0,0,0,.25h0c0,.1,0,.19,0,.28a1.79,1.79,0,0,0,0,.28.19.19,0,0,0,0,0l0,.07,0,.07,0,0v0h0l0,.06h0l0,0A0,0,0,0,0,235.95,240.75Zm-.37-.5h0Zm0-.72v0Zm0,.44h0Zm0-.93a0,0,0,0,1,0,0l0,0,0,0h0V239h0s0,0,0,0Zm0,0h0Zm0,.28h0Zm0,.31h0Zm0,.12h0l0,0S235.63,239.77,235.63,239.76Zm0,.43h0Zm0-.46h0s0,0,0,0Zm0,.16h0Zm0-.52h0Zm0-.2h0Zm0,.66h0Zm0-.17h0Zm0-.83h0Zm0,.19h0Zm0,0h0Zm0,1.3h0Zm0,0h0Zm0-1.29h0Zm0-.15,0,0v0h0v0Zm0,1.52h0Zm0-1.1h0v0s0,0,0,0S235.75,239.23,235.75,239.23Zm0-.37h0Zm0,.2h0l0,0a.07.07,0,0,1,0,0l0,0Zm0-.15h0Zm0,.41h0Zm0-.34v0s0,0,0,0v0Zm0,.68h0Zm0-.46h0Zm0-.18s0,0,0,0h0v0h0S235.81,239,235.81,239Zm0-.21h.08v0h-.07l0,0Zm0,.09h0Zm0-.15v0h0v0l0,0h0Zm0,.38h0v0h0Zm0-.45v0Zm0,.38h0Zm0,.16h0Zm0-.22h0Zm0,1.12s0,0,0,0l0,0v0h0Zm0-1h0Zm0-.16h0l0,0a.05.05,0,0,1,0,0h0Zm0,.24h0v0Zm0-.46h0Zm0,.41v0h0v0Zm0-.17h0Zm0,.08h0Zm0-.38h0Zm0,1.35h0Zm0-1.29s0,0,0,0h0a0,0,0,0,0,0,0Zm0,.25a0,0,0,0,1,0,0h0v0Zm0,.38v0h0v0h0Zm0-.35h0v0h0Zm0,.42h0Zm0-.8h0l0,0Zm0,.31h0v0Zm0,1.58h0Zm0-2h0Zm0,.81h0Zm0-.58h0l0,0s0,0,0,0h0l0,0a0,0,0,0,0,0,0l0,0A0,0,0,0,1,236,238.77Zm0,1.7h0Zm0-1.74h0Zm0,.45h0Zm0,.2h0Zm0-.23,0,0Zm0-.53h0A0,0,0,0,0,236,238.63Zm1,2.36a1.36,1.36,0,0,0,.29-.38,2.36,2.36,0,0,0,.19-.47,3,3,0,0,0,.09-.42,2.85,2.85,0,0,0,0-.35,2.06,2.06,0,0,0,0-.37,1.59,1.59,0,0,0-.11-.35,1,1,0,0,0-.19-.29.33.33,0,0,1-.12-.09.33.33,0,0,0-.16,0,.39.39,0,0,0-.21,0l-.19.11,0,.05h0v0l-.07.06a.18.18,0,0,0,0,.08h0a.87.87,0,0,0-.1.19c0,.07-.07.14-.1.19a2.46,2.46,0,0,0-.09.32,2.24,2.24,0,0,0-.06.32,2,2,0,0,0,0,.25,2.28,2.28,0,0,0,0,.31,2.62,2.62,0,0,0,.07.32,1.5,1.5,0,0,0,.11.3.7.7,0,0,0,.17.22.42.42,0,0,0,.24.1A.49.49,0,0,0,237,241Zm-1-2.14h0Zm0,.44h0ZM236,239h0Zm0,1.78h0l0,0Zm.12-2h0Zm.09-.29h0l0,0S236.27,238.39,236.26,238.4Zm1,2.54h0l0,0Zm0-.29h0s0,0,0,0h0Zm0-2.25h0l0,0Zm0,2.61h0Zm.65-1.15v0h0v-.06a.27.27,0,0,0,0-.05l.06,0h0l0,0v0l0,0h0v0h0l0,0v0h0l0-.12,0,0h0l0-.13,0-.12.07,0,.06,0h0s0,0,0,0v0h0v0h0l0,.05a0,0,0,0,1,0,0v0s0,0,0,0h0a.25.25,0,0,0,0,.06l0,.06H238v0h0l0,0h0l0,0,0,0h0l-.08-.13-.09-.12.08.12.07.13h0l0,.07h0s0,0,0,0h0l0,.11h0v.06l0,0v0l0,0v0h0s0,0,0,0h0v.05h0a.05.05,0,0,1-.05,0h0s0,0,0,0h0v0a0,0,0,0,1,0,0l0,0,.05,0v.07a.19.19,0,0,0,0,0v0l.05,0H238v0h0a0,0,0,0,1,0,0,.14.14,0,0,1,0-.05h0a0,0,0,0,1,0,0h0v0l0,0a.08.08,0,0,1,0,0,.09.09,0,0,0,0,0h0v0h0a0,0,0,0,0,0,0l0,0v.05h0l0,.07,0,0h0l0,0s0,0,0,0l0,0v0l0,0h0s0,0,0,0h0v0s0,0,0,0h0v-.06H238v0h0v.05h0v0h-.06s0,0,0,.06h0a.08.08,0,0,1,0,0v0h0s0,0,0,0H238a1.86,1.86,0,0,1-.08.35,1.41,1.41,0,0,1-.15.33l0,0,0,0v0a.1.1,0,0,0,0,0,.1.1,0,0,1,0,0h0s0,0,0,0v0h0l0,0h0v0l0,0,0,0h0l0,0h0v0h0l0,0h0v0s0,0,0,0h0l0,0h0l0,0h0a.07.07,0,0,0,0,0l0,0,0,0s0,0,0,0h0s0,0,0,0v0a0,0,0,0,0,0,0v.06h0v0h0l0,0h0v0l-.05,0v0h0v0h0l.08-.07.07-.07h0l0-.05,0,0,0,0h0v0l0-.05h0v0a2,2,0,0,0,.15-.3,1.61,1.61,0,0,0,.09-.32h0v0h0Zm-.64.7h0Zm0,0h0Zm0-2.18h0l0,0Zm.05.06h0l0,0Zm0,2h0Zm0,.16h0S237.51,240.67,237.51,240.68Zm0-2.29h0l0,0Zm0,2.35h0Zm0-.29h0Zm0-.38h0Zm0,.2h0Zm.1.17h0v-.05l-.06,0h.06v0Zm0-.12,0,0h0l0,0Zm0,.15h0Zm0,.14h0l0,0Zm.14-.68h0l0,0h0v0h0l0,0h.07v0l0,0h.1l0,0,.06,0Zm-.11-1h0Zm0-.29h0Zm0,.05h0Zm0,1.64s0,0,0,0h0l0,0A0,0,0,0,0,237.69,240.34Zm0-1.4h0Zm0,.82h0Zm0-.68h0Zm0,.54h0l0,0Zm0,.25h0Zm0,.42h0Zm0-1.4h0l0,0Zm0,.13h0Zm0,.5h0l0,0Zm0-.2h0v0Zm0-.59h0Zm0-.06h0s0,0,0,0h0Zm0,1.82,0,0h0l0,.06Zm0-1.57h0Zm0,.43h0Zm0,.94h0Zm0-1.16h0l0,0Zm0-.3,0,0s0,0,0,0Zm0,.36h0Zm0-.22h0l0,0Zm0,1h0Zm0-.59s0,0,0,0l0,0v0h0Zm0-.09h0l0,0Zm0,.14h0v0h0Zm0,.84h0Zm0-.42a0,0,0,0,0,0,0v0s0,0,0,0l0,0v0s0,0,0,0l0,0Zm-.06.56h0l0,0Zm0-1.33h0Zm0,.6h0Zm0-.08h0l0,0Zm0-.61h0l0,0Zm0,1.19h0l0,0Zm0-.93h0l0,0Zm0-.16h0v0Zm0,.45h0Zm0,.2h0l0,0Zm0-.41h0Zm0,.94h0Zm0,0h0l0,0Zm0-.88h0v0Zm0-.08h0l0,0Zm0,.14h0Zm0-.25h0l0,0Zm0,.36h0l0,0,0,0v0Zm0,.12h0Zm0,.11h0l0,0Zm0,.1v0h0A0,0,0,0,0,237.86,239.85Zm0,.6h0l0,0Zm0-.74h0l0,0Zm0,.38h0Zm0,.41h0Zm0-1.06h0Zm0-.18h0v0Zm0,.15h0Zm0,.19v0h0A0,0,0,0,1,237.94,239.59Zm0-.72h0v0h0v0Zm0,.36a.08.08,0,0,0,0,0h0l0,0h0l0,0h0v.07h-.07l0,0,0,0A.1.1,0,0,0,237.93,239.23Zm0,.2v0h0Zm0-.47h0Zm0,.24v0Zm0,.58h0S238,239.78,238,239.79Zm0-.87h0Zm0,.77h0Zm0,0h0v0S238,239.72,238,239.7Zm0,.05h0v0Zm0-.58h0a0,0,0,0,0,0,0v.05h0s0,0,0,0h0v0Zm0-.09h0Zm0,1.06h0l0,0h0Zm0-.7h0l0,0Zm0,.1h0a0,0,0,0,0,0,0Zm0-.07h0l0,0Zm0-.13h0l0,0Zm0,.3h0l0,0Zm0,.13h0l0,0h0A0,0,0,0,0,238.13,239.77Zm0-.23h0l0,0Z"/></g></g></g></svg>