<svg xmlns="http://www.w3.org/2000/svg" viewBox="0 0 104.93 386.37"><defs><style>.cls-1{fill:#a8c7c8;}.cls-2{fill:#e0eeee;}.cls-3{fill:#e9f6f5;}.cls-4{fill:#c5e7e7;}.cls-5{fill:#78b6c2;}.cls-6{fill:#ddecec;}.cls-7{fill:#acc5c7;}</style></defs><title>Asset 14water</title><g id="Layer_2" data-name="Layer 2"><g id="Layer_9" data-name="Layer 9"><polygon class="cls-1" points="0.97 125.02 38.86 105.59 103.96 114.34 104.93 354.31 70.92 386.37 0 371.8 0.97 125.02"/><polygon class="cls-2" points="73.84 134.38 0.97 125.02 0 371.8 70.92 386.37 73.84 134.38"/><polygon class="cls-3" points="103.96 114.34 73.84 134.38 70.92 386.37 104.93 354.31 103.96 114.34"/><ellipse class="cls-4" cx="57.54" cy="117.23" rx="29.67" ry="4.94"/><ellipse class="cls-4" cx="57.53" cy="115.68" rx="29.67" ry="6.16"/><path class="cls-5" d="M17.63,15.51S15.52,6.56,21.58,4,57.43,0,57.43,0,92.76.5,95.29,5s3,45.94,3,45.94.5,47.45-3,49.47S79.64,114.6,66,114.6s-23.22-.5-23.22-.5S20.07,103,19.06,99.45,17.63,15.51,17.63,15.51Z"/><polygon class="cls-6" points="3.66 193.92 72.83 204.41 72.83 288.37 3.19 278.35 3.66 193.92"/><polygon class="cls-7" points="2.23 193.44 17.02 197.25 17.5 259.75 2.71 263.09 2.23 193.44"/></g></g></svg>